<svg xmlns="http://www.w3.org/2000/svg" width="24" height="24" viewBox="0 0 24 24">
    <path fill="#FF1A00" fill-rule="nonzero" d="M12.167.074C5.639.074.347 5.366.347 11.894c0 6.53 5.292 11.82 11.82 11.82 6.528 0 11.82-5.29 11.82-11.82 0-6.528-5.293-11.82-11.82-11.82zm.677 4.794c.536-.63 1.443-1.096 2.191-1.126.096.871-.256 1.745-.774 2.374-.52.628-1.372 1.118-2.207 1.053-.113-.854.308-1.745.79-2.301zM17.1 16.77c-.62.907-1.263 1.81-2.277 1.829-.996.018-1.317-.59-2.455-.59-1.139 0-1.495.572-2.438.609-.978.036-1.723-.978-2.348-1.882-1.28-1.847-2.255-5.22-.943-7.497.65-1.132 1.814-1.846 3.077-1.866.962-.018 1.869.648 2.455.648.588 0 1.69-.8 2.85-.681.484.02 1.846.195 2.72 1.474-.07.044-1.625.949-1.607 2.833.02 2.25 1.974 2.998 1.997 3.01-.018.05-.313 1.065-1.03 2.113z"/>
</svg>
