<?xml version="1.0" encoding="UTF-8"?>
<svg width="18px" height="12px" viewBox="0 0 18 12" version="1.1" xmlns="http://www.w3.org/2000/svg" xmlns:xlink="http://www.w3.org/1999/xlink">
    <!-- Generator: sketchtool 50.2 (55047) - http://www.bohemiancoding.com/sketch -->
    <title>12C24E5F-21F4-48C9-A603-321AC6F46A8F</title>
    <desc>Created with sketchtool.</desc>
    <defs></defs>
    <g id="Website" stroke="none" stroke-width="1" fill="none" fill-rule="evenodd">
        <g id="Elements" transform="translate(-1302.000000, -323.000000)" fill="#FF1E00">
            <g id="Promote_step_1" transform="translate(890.000000, 100.000000)">
                <g id="Group-2" transform="translate(30.000000, 186.000000)">
                    <path d="M391,37 C386.909091,37 383.390909,39.48 382,43 C383.390909,46.52 386.909091,49 391,49 C395.090909,49 398.609091,46.52 400,43 C398.609091,39.48 395.090909,37 391,37 L391,37 Z M391,47 C388.709091,47 386.909091,45.24 386.909091,43 C386.909091,40.76 388.709091,39 391,39 C393.290909,39 395.090909,40.76 395.090909,43 C395.090909,45.24 393.290909,47 391,47 L391,47 Z M391,40.6 C389.609091,40.6 388.545455,41.64 388.545455,43 C388.545455,44.36 389.609091,45.4 391,45.4 C392.390909,45.4 393.454545,44.36 393.454545,43 C393.454545,41.64 392.390909,40.6 391,40.6 L391,40.6 Z" id="Shape"></path>
                </g>
            </g>
        </g>
    </g>
</svg>