<?xml version="1.0" encoding="UTF-8"?>
<svg width="18px" height="15px" viewBox="0 0 18 15" version="1.1" xmlns="http://www.w3.org/2000/svg" xmlns:xlink="http://www.w3.org/1999/xlink">
    <!-- Generator: sketchtool 50.2 (55047) - http://www.bohemiancoding.com/sketch -->
    <title>3F20C131-810D-4B5D-AC38-CFECA663E34A</title>
    <desc>Created with sketchtool.</desc>
    <defs></defs>
    <g id="Website" stroke="none" stroke-width="1" fill="none" fill-rule="evenodd">
        <g id="Elements" transform="translate(-1302.000000, -352.000000)" fill="#D1D5D8">
            <g id="Promote_step_1" transform="translate(890.000000, 100.000000)">
                <g id="Group-2" transform="translate(30.000000, 186.000000)">
                    <path d="M391,69.1578947 C393.290909,69.1578947 395.090909,70.8947368 395.090909,73.1052632 C395.090909,73.5789474 395.009091,74.1315789 394.763636,74.5263158 L397.136364,76.8157895 C398.363636,75.7894737 399.345455,74.5263158 399.918182,73.1052632 C398.527273,69.6315789 395.009091,67.1842105 390.918182,67.1842105 C389.772727,67.1842105 388.709091,67.4210526 387.645455,67.7368421 L389.445455,69.4736842 C389.936364,69.2368421 390.509091,69.1578947 391,69.1578947 L391,69.1578947 Z M382.818182,67.0263158 L384.7,68.8421053 L385.027273,69.1578947 C383.636364,70.1842105 382.572727,71.5263158 382,73.1052632 C383.390909,76.5789474 386.909091,79.0263158 391,79.0263158 C392.227273,79.0263158 393.454545,78.7894737 394.6,78.3947368 L394.927273,78.7105263 L397.3,81 L398.363636,79.9736842 L383.881818,66 L382.818182,67.0263158 L382.818182,67.0263158 Z M387.318182,71.3684211 L388.545455,72.5526316 L388.545455,73.1052632 C388.545455,74.4473684 389.609091,75.4736842 391,75.4736842 C391.163636,75.4736842 391.327273,75.4736842 391.572727,75.3947368 L392.8,76.5789474 C392.227273,76.8947368 391.654545,77.0526316 391,77.0526316 C388.709091,77.0526316 386.909091,75.3157895 386.909091,73.1052632 C386.909091,72.4736842 387.072727,71.9210526 387.318182,71.3684211 L387.318182,71.3684211 Z M390.836364,70.7368421 L393.372727,73.1842105 L393.372727,73.0263158 C393.372727,71.6842105 392.309091,70.6578947 390.918182,70.6578947 C390.918182,70.7368421 390.918182,70.7368421 390.836364,70.7368421 L390.836364,70.7368421 Z" id="Shape"></path>
                </g>
            </g>
        </g>
    </g>
</svg>