<?xml version="1.0" encoding="UTF-8"?>
<svg width="22px" height="22px" viewBox="0 0 22 22" version="1.1" xmlns="http://www.w3.org/2000/svg" xmlns:xlink="http://www.w3.org/1999/xlink">
    <!-- Generator: Sketch 48.2 (47327) - http://www.bohemiancoding.com/sketch -->
    <title>arrow-left</title>
    <desc>Created with Sketch.</desc>
    <defs></defs>
    <g id="Page-1" stroke="none" stroke-width="1" fill="none" fill-rule="evenodd">
        <g id="arrow-left" fill="#FFFFFF" fill-rule="nonzero">
            <path d="M18.7499995,-9.43487871e-16 L3.24899991,-9.43487871e-16 C2.38705689,-0.00026554 1.56035517,0.34209086 0.950963168,0.951670433 C0.341571173,1.56125 -0.00053079402,2.38805706 -1.81201889e-14,3.24999999 L-1.81201889e-14,18.7499999 C-0.000530646409,19.6117695 0.341434088,20.4384249 0.950609751,21.0479757 C1.55978542,21.6575265 2.38623014,22 3.24799991,21.9999998 L18.7499995,21.9999998 C20.5449249,21.9999998 21.9999994,20.5449253 21.9999994,18.7499999 L21.9999994,3.24999999 C21.9999994,2.38804639 21.6575897,1.56139618 21.0480964,0.951902956 C20.4386032,0.34240973 19.611953,-2.42184558e-15 18.7499995,-9.43487871e-16 Z M12.3117774,13.8230298 L8.79995212,11.6420194 C8.56870582,11.4984516 8.43000031,11.2579448 8.43000031,11.0005457 C8.43000031,10.7431466 8.56870582,10.5026398 8.79995212,10.3590721 L12.3117774,8.17497018 C12.56831,8.01560543 12.8990619,7.99993379 13.1718957,8.13421617 C13.4447294,8.26849855 13.6151672,8.53084394 13.615118,8.81644384 L13.615118,13.1815562 C13.6151672,13.4671561 13.4447294,13.7295014 13.1718957,13.8637838 C12.8990619,13.9980662 12.56831,13.9823946 12.3117774,13.8230298 Z" id="Shape"></path>
        </g>
    </g>
</svg>