<?xml version="1.0" encoding="UTF-8"?>
<svg width="22px" height="22px" viewBox="0 0 22 22" version="1.1" xmlns="http://www.w3.org/2000/svg" xmlns:xlink="http://www.w3.org/1999/xlink">
    <!-- Generator: Sketch 48.2 (47327) - http://www.bohemiancoding.com/sketch -->
    <title>arrow-right</title>
    <desc>Created with Sketch.</desc>
    <defs></defs>
    <g id="Page-1" stroke="none" stroke-width="1" fill="none" fill-rule="evenodd">
        <g id="arrow-right" fill="#FFFFFF" fill-rule="nonzero">
            <path d="M18.7549934,-3.49814968e-14 L3.24999886,-3.49814968e-14 C2.38796425,-0.000265363992 1.56116013,0.342059131 0.95160958,0.95160986 C0.342059031,1.56116059 -0.000265363914,2.38796495 -5.49054719e-14,3.24999982 L-5.49054719e-14,18.7499989 C-0.000265363914,19.6120338 0.342059031,20.4388382 0.95160958,21.0483889 C1.56116013,21.6579396 2.38796425,22.0002641 3.24999886,21.9999988 L18.7549934,21.9999988 C19.6166509,22.0005322 20.4430974,21.6581337 21.0519121,21.0483807 C21.6607268,20.4386277 22.0018523,19.6116548 21.9999923,18.7499989 L21.9999923,3.24999982 C22.0018523,2.38834392 21.6607268,1.56137104 21.0519121,0.95161803 C20.4430974,0.341865023 19.6166509,-0.000533403196 18.7549934,-3.49814968e-14 Z M8.43000127,13.1824267 L8.43000127,8.81694121 C8.42952829,8.53089652 8.60235951,8.26801842 8.879229,8.13366112 C9.1560985,7.99930383 9.49169789,8.01545427 9.7515283,8.1756398 L13.3094857,10.3591552 C13.5436581,10.5026844 13.6841188,10.7431266 13.6841188,11.0004566 C13.6841188,11.2577865 13.5436581,11.4982288 13.3094857,11.641758 L9.74983403,13.8237281 C9.49005528,13.98305 9.15511817,13.9987175 8.87883203,13.8644711 C8.60254589,13.7302248 8.42995148,13.4679499 8.43000127,13.1824267 Z" id="Shape"></path>
        </g>
    </g>
</svg>