<svg xmlns="http://www.w3.org/2000/svg" width="46" height="22" viewBox="0 0 46 22">
    <g fill="none" fill-rule="evenodd">
        <path fill="#FFF" fill-rule="nonzero" d="M28.75 22H3.249A3.248 3.248 0 0 1 0 18.75V3.25A3.248 3.248 0 0 1 3.248 0H42.75A3.25 3.25 0 0 1 46 3.25v15.5A3.25 3.25 0 0 1 42.75 22h-14z"/>
        <path fill="#0F181E" d="M14.134 13.906H10V7h4.134v1.2h-2.612v1.516h2.43v1.2h-2.43v1.78h2.612v1.21zm6.448 0h-1.498V10.82c0-.38-.07-.667-.211-.857-.14-.19-.365-.286-.673-.286-.419 0-.722.135-.908.404-.187.27-.28.716-.28 1.34v2.484h-1.498V8.625h1.144l.202.675h.083c.167-.255.397-.448.69-.578.293-.131.626-.196 1-.196.638 0 1.122.166 1.453.498.33.332.496.812.496 1.438v3.444zm3.854-1.054c.262 0 .576-.055.943-.165v1.072c-.373.16-.831.241-1.375.241-.599 0-1.035-.146-1.308-.437-.274-.291-.41-.728-.41-1.31V9.705h-.717v-.609l.825-.482.432-1.114h.957v1.124h1.537v1.081h-1.537v2.546c0 .205.06.356.18.454.119.097.277.146.473.146zm4.326-3.301c-.317 0-.566.096-.746.29-.18.194-.283.468-.31.824h2.102c-.006-.356-.103-.63-.29-.824-.186-.194-.438-.29-.756-.29zM28.973 14c-.883 0-1.574-.235-2.072-.704-.497-.469-.746-1.133-.746-1.993 0-.885.23-1.569.69-2.052.46-.484 1.096-.725 1.907-.725.776 0 1.38.212 1.812.637.432.425.648 1.013.648 1.762v.7h-3.54c.017.409.143.728.378.958.236.23.567.345.992.345.33 0 .643-.033.938-.1.295-.066.602-.171.923-.316v1.115a3.61 3.61 0 0 1-.84.28 5.497 5.497 0 0 1-1.09.093zm6.521-5.474c.203 0 .372.014.506.042l-.113 1.351a1.78 1.78 0 0 0-.442-.047c-.478 0-.85.118-1.117.354s-.4.567-.4.992v2.688H32.43V8.625h1.134l.221.888h.074c.17-.296.4-.535.69-.716a1.75 1.75 0 0 1 .945-.271z"/>
    </g>
</svg>
