<svg xmlns="http://www.w3.org/2000/svg" width="26" height="22" viewBox="0 0 26 22">
    <g fill="none" fill-rule="evenodd">
        <path fill="#FFF" fill-rule="nonzero" d="M22.755 0H3.25A3.249 3.249 0 0 0 0 3.25v15.5A3.249 3.249 0 0 0 3.25 22h19.505A3.243 3.243 0 0 0 26 18.75V3.25A3.243 3.243 0 0 0 22.755 0z"/>
        <path fill="#0F181E" d="M7.719 9.123c-.331 0-.59.107-.779.319-.187.212-.295.513-.322.903h2.191c-.007-.39-.107-.691-.302-.903-.194-.212-.457-.319-.788-.319zM7.939 14c-.922 0-1.642-.257-2.16-.771-.52-.515-.779-1.243-.779-2.185 0-.97.24-1.72.72-2.25C6.198 8.265 6.861 8 7.707 8c.81 0 1.44.233 1.89.699.45.466.676 1.11.676 1.93v.767H6.582c.017.449.149.799.394 1.05.246.253.59.379 1.035.379.344 0 .67-.036.977-.109.308-.072.629-.188.963-.347v1.222a3.64 3.64 0 0 1-.875.308c-.311.067-.69.101-1.137.101zm7.598-1.822c0 .593-.204 1.045-.612 1.356-.408.31-1.018.466-1.83.466-.417 0-.772-.028-1.065-.085a3.995 3.995 0 0 1-.825-.251v-1.305c.29.138.617.254.98.347.364.093.684.14.96.14.568 0 .85-.166.85-.497a.417.417 0 0 0-.112-.303 1.632 1.632 0 0 0-.389-.264 9.778 9.778 0 0 0-.737-.345c-.44-.186-.764-.358-.97-.517a1.454 1.454 0 0 1-.451-.546 1.82 1.82 0 0 1-.14-.759c0-.514.196-.912.59-1.193.395-.281.954-.422 1.677-.422.69 0 1.36.152 2.013.456l-.472 1.138a8.605 8.605 0 0 0-.803-.305c-.25-.08-.504-.119-.763-.119-.461 0-.691.126-.691.378 0 .141.074.264.222.367.149.104.474.258.976.461.447.183.774.354.983.513.208.158.361.341.46.548.1.208.149.454.149.74zM19.08 14c-1.782 0-2.673-.989-2.673-2.966 0-.984.243-1.735.727-2.255.485-.52 1.18-.779 2.084-.779.662 0 1.256.131 1.782.393l-.46 1.222a7.823 7.823 0 0 0-.687-.246 2.188 2.188 0 0 0-.635-.095c-.812 0-1.218.583-1.218 1.75 0 1.131.406 1.697 1.218 1.697.3 0 .579-.04.835-.121a3 3 0 0 0 .768-.38v1.35a2.503 2.503 0 0 1-.766.337 4.259 4.259 0 0 1-.975.093z"/>
    </g>
</svg>
