<svg xmlns="http://www.w3.org/2000/svg" width="30" height="16" viewBox="0 0 30 16">
    <path fill="#D1D5D8" fill-rule="evenodd" d="M7.255 6.154a1.008 1.008 0 0 1-1.005-1.01V3.47c0-.557-.447-1.008-1.002-1.008h-.496c-.553 0-1.002.452-1.002 1.008v1.675c0 .557-.445 1.009-1.005 1.009h-1.74C.45 6.154 0 6.605 0 7.155v.46a1 1 0 0 0 1.005 1h1.74c.555 0 1.005.453 1.005 1.01v1.674c0 .557.447 1.009 1.002 1.009h.496c.553 0 1.002-.453 1.002-1.01V9.625c0-.557.445-1.009 1.005-1.009h1.74c.555 0 1.005-.451 1.005-1v-.46a1 1 0 0 0-1.005-1.001h-1.74zM26.5 3.692C26.5 1.6 24.983 0 23 0c-.35 0-.7.123-1.05.123.7 1.108 1.05 2.215 1.05 3.57 0 1.353-.35 2.46-1.05 3.569.35 0 .7.123 1.05.123 1.983 0 3.5-1.6 3.5-3.693zm-5.833 0C20.667 1.6 19.15 0 17.167 0c-1.984 0-3.5 1.6-3.5 3.692 0 2.093 1.516 3.693 3.5 3.693 1.983 0 3.5-1.6 3.5-3.693zm5.833 9.846v1.46c0 .554.458 1.002.994 1.002h1.512A1 1 0 0 0 30 14.999v-1.46c0-1.847-2.8-3.077-5.133-3.447.933.862 1.633 2.093 1.633 3.446zm-16.5 0v1.46c0 .554.45 1.002 1.007 1.002h11.986C23.55 16 24 15.549 24 14.999v-1.46C24 11.076 19.333 10 17 10s-7 1.077-7 3.538z"/>
</svg>
