<svg xmlns="http://www.w3.org/2000/svg" xmlns:xlink="http://www.w3.org/1999/xlink" width="18" height="16" viewBox="0 0 18 16">
    <defs>
        <path id="a" d="M260 29.93s-.903-1.93-3.15-1.93c-2.004 0-3.85 1.53-3.85 4.105 0 2.455 2.386 4.187 3.686 5.366C257.985 38.65 260 40 260 40s2.015-1.35 3.314-2.53c1.3-1.178 3.686-2.91 3.686-5.365 0-2.575-1.846-4.105-3.85-4.105-2.247 0-3.15 1.93-3.15 1.93z"/>
    </defs>
    <g fill="none" fill-rule="evenodd" stroke-linecap="round" stroke-linejoin="round" transform="translate(-251 -26)">
        <use fill="#E74800" xlink:href="#a"/>
        <path stroke="#FFF" stroke-width="2" d="M260 28.282l.043-.041c.809-.77 1.85-1.241 3.107-1.241 2.704 0 4.85 2.124 4.85 5.105 0 1.797-.91 3.261-2.568 4.82-.349.328-1.402 1.247-1.446 1.286-.151.138-.315.28-.489.427-.214.18-.443.365-.686.555a40.2 40.2 0 0 1-2.254 1.638l-.557.373-.557-.373a40.2 40.2 0 0 1-2.255-1.638c-.242-.19-.471-.375-.685-.555a17.17 17.17 0 0 1-.49-.427c-.043-.04-1.096-.958-1.445-1.286-1.658-1.559-2.568-3.023-2.568-4.82 0-2.981 2.146-5.105 4.85-5.105a4.394 4.394 0 0 1 3.15 1.282z"/>
    </g>
</svg>
