<svg width="1542" height="296" viewBox="0 0 1542 296" version="1.1" xmlns="http://www.w3.org/2000/svg" xmlns:xlink="http://www.w3.org/1999/xlink">
<title>steepshotLogo</title>
<desc>Created using Figma</desc>
<g id="Canvas" transform="matrix(2 0 0 2 1008 1308)">
<g id="steepshotLogo">
<g id="Group">
<g id="Vector">
<use xlink:href="#path0_fill" transform="matrix(0.1 0 0 -0.1 21.5319 -538.576)" fill="#0F181E"/>
</g>
<g id="Vector">
<use xlink:href="#path1_fill" transform="matrix(0.1 0 0 -0.1 -424.164 -536.621)" fill="#0F181E"/>
</g>
<g id="Vector">
<use xlink:href="#path2_fill" transform="matrix(0.1 0 0 -0.1 206.881 -536.847)" fill="#0F181E"/>
</g>
<g id="Vector">
<use xlink:href="#path3_fill" transform="matrix(0.1 0 0 -0.1 -504 -536.537)" fill="#0F181E"/>
</g>
<g id="Vector">
<use xlink:href="#path4_fill" transform="matrix(0.1 0 0 -0.1 -354.564 -536.541)" fill="#0F181E"/>
</g>
<g id="Vector">
<use xlink:href="#path5_fill" transform="matrix(0.1 0 0 -0.1 -260.164 -536.431)" fill="#0F181E"/>
</g>
<g id="Vector">
<use xlink:href="#path6_fill" transform="matrix(0.1 0 0 -0.1 -161.664 -506.231)" fill="#0F181E"/>
</g>
<g id="Vector">
<use xlink:href="#path7_fill" transform="matrix(0.1 0 0 -0.1 -65.8419 -536.482)" fill="#0F181E"/>
</g>
<g id="Vector">
<use xlink:href="#path8_fill" transform="matrix(0.1 0 0 -0.1 113.782 -536.492)" fill="#0F181E"/>
</g>
</g>
</g>
</g>
<defs>
<path id="path0_fill" d="M 106.041 1153.55L 3.04052 1150.55L 1.04052 585.553C -0.959482 274.553 0.0405183 15.5527 3.04052 11.5527C 10.0405 0.552707 206.041 -3.44729 222.041 5.55271C 230.041 10.5527 233.041 89.5527 233.041 259.553C 233.041 497.553 234.041 508.553 256.041 546.553C 318.041 656.553 467.041 657.553 544.041 549.553C 568.041 517.553 568.041 511.553 571.041 262.553C 572.041 122.553 575.041 5.55271 577.041 3.55271C 584.041 -2.44729 782.041 -0.447293 793.041 6.55271C 799.041 10.5527 803.041 105.553 803.041 275.553C 803.041 585.553 793.041 635.553 718.041 719.553C 651.041 793.553 598.041 815.553 483.041 815.553C 402.041 815.553 381.041 811.553 339.041 791.553C 313.041 777.553 283.041 756.553 273.041 744.553C 236.041 697.553 233.041 713.553 233.041 924.553C 233.041 1072.55 230.041 1131.55 221.041 1142.55C 211.041 1153.55 185.041 1155.55 106.041 1153.55Z"/>
<path id="path1_fill" d="M 137 1035.11C 133 1031.11 130 983.108 130 929.108L 130 831.108L 81 831.108C 1 831.108 0 829.108 0 741.108C 0 690.108 4 660.108 13 653.108C 20 647.108 48 641.108 75 639.108L 125 636.108L 131 431.108C 138 211.108 146 170.108 197 102.108C 261 18.108 420 -21.892 556 12.108L 601 24.108L 598 110.108L 595 196.108L 512 196.108C 430 196.108 428 197.108 399 229.108C 371 260.108 370 265.108 369 369.108C 369 428.108 368 511.108 367 553.108C 367 596.108 369 633.108 373 637.108C 376 641.108 423 643.108 477 642.108C 531 641.108 581 645.108 588 649.108C 597 655.108 600 681.108 598 742.108L 595 826.108L 483 829.108C 403 831.108 370 835.108 369 844.108C 369 851.108 368 897.108 367 946.108L 365 1036.11L 254 1039.11C 194 1040.11 141 1038.11 137 1035.11Z"/>
<path id="path2_fill" d="M 144.547 1027.84C 140.547 1021.84 136.547 975.841 135.547 925.841L 134.547 833.841L 69.547 828.841L 4.54704 823.841L 1.54704 753.841C -3.45296 644.841 0.547039 637.841 61.547 639.841C 99.547 641.841 115.547 637.841 124.547 625.841C 133.547 613.841 138.547 544.841 141.547 400.841C 145.547 210.841 147.547 190.841 168.547 151.841C 227.547 41.8407 329.547 -7.15927 482.547 0.840728C 596.547 6.84073 600.547 10.8407 597.547 112.841L 594.547 193.841L 514.547 193.841C 421.547 193.841 399.547 206.841 374.547 277.841C 354.547 335.841 352.547 610.841 372.547 626.841C 379.547 632.841 432.547 639.841 490.547 640.841L 594.547 643.841L 594.547 733.841L 594.547 823.841L 479.547 828.841L 364.547 833.841L 361.547 936.841L 358.547 1038.84L 254.547 1038.84C 191.547 1038.84 148.547 1034.84 144.547 1027.84Z"/>
<path id="path3_fill" d="M 255.36 832.943C 223.36 827.943 191.36 818.943 185.36 812.943C 179.36 806.943 167.36 801.943 159.36 801.943C 132.36 801.943 48.3597 721.943 26.3597 674.943C 13.3597 647.943 5.35974 610.943 5.35974 578.943C 5.35974 459.943 93.3597 376.943 248.36 350.943C 430.36 319.943 468.36 307.943 495.36 272.943C 514.36 247.943 510.36 227.943 479.36 197.943C 453.36 172.943 444.36 170.943 374.36 170.943C 288.36 170.943 253.36 185.943 225.36 232.943L 209.36 262.943L 106.36 259.943C 6.35974 256.943 3.35974 255.943 0.359741 232.943C -3.64026 204.943 26.3597 137.943 58.3597 103.943C 148.36 7.94312 332.36 -26.0569 516.36 20.9431C 589.36 39.9431 664.36 91.9431 698.36 147.943C 730.36 197.943 729.36 326.943 697.36 377.943C 673.36 416.943 604.36 471.943 579.36 471.943C 570.36 471.943 545.36 478.943 523.36 486.943C 501.36 494.943 465.36 501.943 443.36 501.943C 369.36 503.943 266.36 535.943 246.36 562.943C 218.36 599.943 231.36 637.943 279.36 661.943C 349.36 697.943 424.36 679.943 467.36 615.943L 491.36 581.943L 599.36 581.943C 669.36 581.943 708.36 585.943 708.36 592.943C 708.36 627.943 670.36 708.943 637.36 742.943C 580.36 802.943 511.36 829.943 403.36 835.943C 354.36 837.943 287.36 836.943 255.36 832.943Z"/>
<path id="path4_fill" d="M 324 831.907C 207 815.907 92 725.907 33 604.907C 1 539.907 0 531.907 0 419.907C 0 303.907 0 302.907 38 227.907C 95 114.907 170 54.9073 308 11.9073C 364 -6.09268 480 -3.09268 547 16.9073C 663 50.9073 734 104.907 790 199.907C 829 265.907 822 271.907 700 271.907C 595 271.907 595 271.907 566 239.907C 537 209.907 457 171.907 421 171.907C 411 171.907 378 183.907 348 197.907C 290 224.907 247 275.907 242 321.907L 239 346.907L 539 351.907L 839 356.907L 839 451.907C 839 536.907 836 553.907 810 606.907C 742 744.907 619 825.907 464 834.907C 417 837.907 354 836.907 324 831.907ZM 530 626.907C 570 596.907 608 536.907 600 516.907C 596 504.907 565 501.907 419 501.907L 244 501.907L 244 529.907C 244 554.907 276 596.907 327 638.907C 366 669.907 483 662.907 530 626.907Z"/>
<path id="path5_fill" d="M 340 833C 150 809 0 630 0 428C 0 371 24 269 50 216C 110 91 270 0 430 0C 534 0 636 34 711 94C 755 129 820 223 820 252C 820 272 815 273 713 273L 605 273L 566 238C 544 219 507 196 483 187C 441 171 435 171 385 187C 354 196 317 217 299 236C 263 272 234 331 247 344C 252 349 391 354 555 355L 855 358L 854 438C 853 560 811 658 726 736C 632 822 503 854 340 833ZM 539 625C 577 595 616 530 605 513C 601 507 532 503 424 503L 250 503L 250 526C 250 570 318 640 376 656C 386 659 419 660 449 658C 490 655 512 647 539 625Z"/>
<path id="path6_fill" d="M 424 1135C 372 1126 348 1114 287 1067C 242 1031 238 1033 233 1095L 230 1130L 115 1130L 0 1130L 0 565L 0 0L 115 0L 230 0L 233 190C 234 295 237 386 240 394C 244 405 250 404 268 388C 404 268 611 276 743 406C 817 478 860 596 860 725C 860 902 784 1043 654 1110C 602 1137 496 1148 424 1135ZM 511 936C 570 900 625 799 625 726C 625 626 543 512 462 500C 324 479 235 568 235 727C 235 831 270 898 347 940C 384 961 475 958 511 936Z"/>
<path id="path7_fill" d="M 266.779 833.495C 155.779 816.495 48.779 734.495 25.779 648.495C 7.779 582.495 22.779 492.495 57.779 449.495C 92.779 407.495 179.779 363.495 250.779 352.495C 468.779 317.495 506.779 301.495 506.779 245.495C 506.779 189.495 477.779 173.495 379.779 172.495C 306.779 172.495 294.779 175.495 267.779 197.495C 251.779 211.495 234.779 232.495 231.779 242.495C 225.779 260.495 215.779 262.495 115.779 262.495C -13.221 262.495 -16.221 259.495 19.779 180.495C 60.779 93.495 115.779 48.495 221.779 17.495C 289.779 -2.50497 451.779 -6.50497 484.779 11.495C 495.779 17.495 514.779 22.495 525.779 22.495C 558.779 22.495 628.779 63.495 671.779 108.495C 734.779 173.495 750.779 250.495 720.779 343.495C 702.779 397.495 642.779 458.495 596.779 468.495C 582.779 472.495 552.779 480.495 528.779 488.495C 505.779 496.495 471.779 502.495 453.779 502.495C 399.779 502.495 282.779 534.495 259.779 555.495C 221.779 589.495 231.779 628.495 288.779 665.495C 346.779 701.495 438.779 675.495 474.779 612.495L 491.779 582.495L 599.779 582.495C 724.779 582.495 728.779 586.495 700.779 658.495C 681.779 706.495 595.779 802.495 572.779 802.495C 565.779 802.495 546.779 809.495 529.779 817.495C 493.779 835.495 343.779 844.495 266.779 833.495Z"/>
<path id="path8_fill" d="M 340.54 832.397C 272.54 823.397 182.54 780.397 131.54 732.397C -40.4603 568.397 -44.4603 286.397 123.54 121.397C 197.54 48.397 250.54 24.397 385.54 3.39696C 455.54 -8.60304 577.54 12.397 648.54 47.397C 693.54 70.397 796.54 167.397 816.54 205.397C 956.54 480.397 807.54 796.397 521.54 833.397C 446.54 842.397 418.54 842.397 340.54 832.397ZM 534.54 624.397C 646.54 547.397 662.54 353.397 565.54 248.397C 500.54 178.397 383.54 173.397 317.54 237.397C 222.54 329.397 214.54 483.397 298.54 590.397C 331.54 633.397 371.54 651.397 435.54 651.397C 484.54 651.397 502.54 647.397 534.54 624.397Z"/>
</defs>
</svg>
