<svg xmlns="http://www.w3.org/2000/svg" width="30" height="30" viewBox="0 0 30 30">
    <g fill="#D1D5D8" fill-rule="nonzero">
        <path d="M27.451 13.966l-3.857 3.857c-.22.22-.446.422-.682.61a8.04 8.04 0 0 1-2.99 1.504 8.027 8.027 0 0 1-2.976.235 8.074 8.074 0 0 1-2.698-.77 8.1 8.1 0 0 1-2.224-1.579 8.092 8.092 0 0 1-1.58-2.225 2.733 2.733 0 0 1 3.508.297 5.438 5.438 0 0 0 6.205 1.065 5.376 5.376 0 0 0 1.51-1.065l3.856-3.857c2.13-2.13 2.146-5.569.015-7.7-2.13-2.128-5.598-2.145-7.729-.014L14.844 7.29a10.92 10.92 0 0 0-3.43-.354c.188-.236.39-.463.61-.682l3.857-3.857a8.184 8.184 0 0 1 11.57 0 8.183 8.183 0 0 1 0 11.57z"/>
        <path d="M17.809 23.609l-3.857 3.857c-3.194 3.194-8.346 3.225-11.542.028-3.194-3.194-3.223-8.405-.03-11.6l3.858-3.856c.22-.22.446-.422.682-.61a8.05 8.05 0 0 1 2.99-1.504 8.006 8.006 0 0 1 2.976-.234 8.084 8.084 0 0 1 2.698.768c.805.386 1.56.914 2.225 1.58a8.093 8.093 0 0 1 1.578 2.224 2.732 2.732 0 0 1-3.507-.296A5.438 5.438 0 0 0 9.676 12.9a5.371 5.371 0 0 0-1.51 1.066L4.31 17.823a5.453 5.453 0 0 0 0 7.714 5.452 5.452 0 0 0 7.714 0l2.965-2.965a11.07 11.07 0 0 0 3.43.355c-.187.236-.39.462-.61.682z"/>
    </g>
</svg>
