<svg xmlns="http://www.w3.org/2000/svg" xmlns:xlink="http://www.w3.org/1999/xlink" width="211" height="171" viewBox="0 0 211 171">
    <defs>
        <circle id="b" cx="188.5" cy="94.1" r="4"/>
        <filter id="a" width="975%" height="975%" x="-437.5%" y="-312.5%" filterUnits="objectBoundingBox">
            <feOffset dy="10" in="SourceAlpha" result="shadowOffsetOuter1"/>
            <feGaussianBlur in="shadowOffsetOuter1" result="shadowBlurOuter1" stdDeviation="10"/>
            <feColorMatrix in="shadowBlurOuter1" values="0 0 0 0 0.905882353 0 0 0 0 0.282352941 0 0 0 0 0 0 0 0 0.3 0"/>
        </filter>
    </defs>
    <g fill="none" fill-rule="nonzero">
        <path fill="#DFE0E0" d="M132.5 77.1c0-17.7-8.7-33.4-22-43 6.3 8.7 10 19.4 10 31 0 24.8-17.1 45.7-40.1 51.4 3.7 4.6 8.2 8.5 13.3 11.7 22.3-6.2 38.8-26.7 38.8-51.1z"/>
        <g fill="#48515A">
            <path d="M63.7 13.3c1.2-.1 2.4-.2 3.7-.2 14.4 0 27.8 5.7 37.8 16.1l1.4-1.4C96.2 17 82.3 11.1 67.3 11.1c-1.5 0-2.9.1-4.3.2.2.6.5 1.3.7 2zM111.2 33.4l-1.6 1.2c6.4 8.9 9.9 19.4 9.9 30.4.1 28.1-21.8 51-49.9 52.1-.3 0-.6.2-.8.4-5.2 7.6-13.7 12.3-22.9 12.4 4.7-2.7 7.9-7.8 7.9-13.6v-.2c0-.4-.3-.8-.7-1-22.1-6.4-37.5-26.8-37.6-49.8 0-12.5 4.4-24 11.7-33-.4-.5-.8-1.1-1.2-1.7-7.9 9.4-12.6 21.5-12.5 34.7.1 23.6 15.8 44.7 38.4 51.5-.3 7.3-6.2 13.1-13.6 13.1-.6 0-1 .5-1 1 0 .6.5 1 1 1h7.3c9.8 0 19-4.8 24.6-12.9 28.9-1.4 51.4-25.1 51.3-54.1-.1-11.4-3.6-22.3-10.3-31.5z"/>
        </g>
        <path fill="#48515A" d="M152.8 149.1h-7.3c-9.4 0-18.4-4.5-24.1-12-15 0-29.5-6.4-39.6-17.4l1.5-1.4c9.8 10.7 23.8 16.8 38.3 16.8h.4c.3 0 .6.1.8.4 5.2 7.2 13.6 11.5 22.4 11.6-4.8-2.7-8-7.8-8-13.6 0-.4.3-.9.7-1a51.95 51.95 0 0 0 35.6-49.4c0-6.6-1.2-13-3.6-19.1-5.2-13.4-15.9-24-29.4-29.1l-4.4-1.7c-5.7-1.7-11.7-2.4-17.9-2C91.6 32.8 70.1 55 69.5 81.8c-.3 11.5 3.1 22.4 9.8 31.7l-1.6 1.2c-6.9-9.6-10.5-21-10.2-32.9.7-27.8 22.9-50.9 50.7-52.6 6.3-.4 12.6.3 18.6 2.1l4.5 1.7c14 5.3 25.1 16.4 30.5 30.3 2.5 6.3 3.7 13 3.7 19.8 0 23.1-14.6 43.5-36.3 51 .4 7.2 6.3 13 13.6 13 .6 0 1 .4 1 1s-.5 1-1 1z"/>
        <path fill="#D1D5D8" d="M175.1 44.7l-2-.4c3.1-14.7.9-26.3-6.3-33.5l1.4-1.4c7.7 7.6 10.1 19.9 6.9 35.3z"/>
        <g fill="#48515A">
            <path d="M60.7 24.6l-1.9-.6.3-1-1.3-.4c-1.5-.5-2.5-1.9-2.5-3.5s1-3 2.5-3.5l1.3-.4-.7-2.2-1.3.4c-1.5.5-3.2 0-4.1-1.3-1-1.3-.9-3 0-4.3l.8-1.1L52 5.3l-.8 1.1c-1 1.3-2.6 1.8-4.1 1.3-1.5-.5-2.5-1.9-2.5-3.5V2.9h-2.3v1.3c0 1.6-1 3-2.5 3.5s-3.2 0-4.1-1.3l-.8-1.1L33 6.6l.8 1.1c1 1.3.9 3 0 4.3-1 1.3-2.6 1.8-4.1 1.3l-1.3-.3-.3 1-1.9-.6.9-2.9 3.2 1c.8.3 1.5-.1 1.9-.6.3-.5.5-1.2 0-2l-2-2.7 5.1-3.7 2 2.7c.5.7 1.3.8 1.9.6.6-.2 1.2-.7 1.2-1.6V.9h6.3v3.3c0 .9.6 1.4 1.2 1.6.6.2 1.3.1 1.9-.6l2-2.7 5.1 3.7-2 2.7c-.5.7-.3 1.5 0 2s1 .9 1.9.6l3.2-1 1.9 6-3.2 1c-.9.3-1.2 1-1.2 1.6 0 .6.3 1.3 1.2 1.6l3.2 1-1.2 2.9z"/>
            <path d="M51.5 21.7l-1.9-.7c.5-1.6.4-3.4-.4-4.9-.8-1.5-2.1-2.7-3.8-3.2-1.6-.5-3.4-.4-4.9.4-1.5.7-2.7 2.1-3.2 3.7l-1.9-.6c.7-2.2 2.2-3.9 4.2-4.9 2-1 4.3-1.2 6.5-.5s3.9 2.2 4.9 4.2c1 2 1.2 4.3.5 6.5z"/>
            <g>
                <path d="M43.5 27.4c-.9 0-1.8-.1-2.6-.4-2.2-.7-3.9-2.2-4.9-4.2-1-2-1.2-4.3-.5-6.5l1.9.6c-.5 1.6-.4 3.4.4 4.9.8 1.5 2.1 2.7 3.8 3.2 1.6.5 3.4.4 4.9-.4 1.5-.8 2.7-2.1 3.2-3.8l1.9.6c-.7 2.2-2.2 3.9-4.2 4.9-1.3.8-2.6 1.1-3.9 1.1z"/>
                <path d="M46.6 37.1h-6.3v-3.3c0-.9-.6-1.4-1.2-1.6-.6-.2-1.3-.1-1.9.6l-2 2.7-5.1-3.7 2-2.7c.5-.7.3-1.5 0-2s-1-.9-1.9-.6l-3.2 1-1.9-6 3.2-1c.9-.3 1.2-1 1.2-1.6 0-.6-.3-1.3-1.2-1.6l-3.2-1 1.1-3.3 1.9.6-.3 1.4 1.3.4c1.5.5 2.5 1.9 2.5 3.5s-1 3-2.5 3.5l-1.3.4.7 2.2 1.3-.4c1.5-.5 3.2 0 4.1 1.3 1 1.3.9 3 0 4.3l-.9 1.1 1.8 1.3.8-1.1c1-1.3 2.6-1.8 4.1-1.3 1.5.5 2.5 1.9 2.5 3.5V35h2.3v-1.3c0-1.6 1-3 2.5-3.5s3.2 0 4.1 1.3l.8 1.1 1.8-1.3-.8-1.1c-1-1.3-.9-3 0-4.3 1-1.3 2.6-1.8 4.1-1.3l1.3.4.5-1.5 1.9.6-1.1 3.4-3.2-1c-.8-.3-1.5.1-1.9.6-.3.5-.5 1.2 0 2l2 2.7-5.1 3.7-2-2.7c-.5-.7-1.3-.8-1.9-.6-.6.2-1.2.7-1.2 1.6l.3 3.3z"/>
            </g>
            <g transform="translate(39 15)">
                <circle cx="4.4" cy="4.1" r="4"/>
            </g>
        </g>
        <circle cx="12.5" cy="36.1" r="2" fill="#D1D5D8"/>
        <circle cx="168.5" cy="140.1" r="4" fill="#D1D5D8"/>
        <circle cx="116.5" cy="158.1" r="2" fill="#D1D5D8"/>
        <g fill="#48515A" opacity=".2">
            <path d="M6.5 92.1h2v4h-2zM6.5 102.1h2v4h-2z"/>
            <g>
                <path d="M10.5 98.1h4v2h-4zM.5 98.1h4v2h-4z"/>
            </g>
        </g>
        <g fill="#48515A" opacity=".2">
            <path d="M96.5 156.1h2v4h-2zM96.5 166.1h2v4h-2z"/>
            <g>
                <path d="M100.5 162.1h4v2h-4zM90.5 162.1h4v2h-4z"/>
            </g>
        </g>
        <use fill="#000" filter="url(#a)" xlink:href="#b"/>
        <use fill="#D1D5D8" fill-rule="evenodd" xlink:href="#b"/>
        <path fill="#D1D5D8" d="M173.5 49.1c-.1 0-.3 0-.4-.1-.1-.1-.2-.1-.3-.2-.2-.2-.3-.5-.3-.7 0-.3.1-.5.3-.7.1-.1.2-.2.3-.2.4-.2.8-.1 1.1.2.2.2.3.4.3.7 0 .3-.1.5-.3.7-.2.2-.4.3-.7.3zM16 135.5c-.1-.5.3-1 .9-1.1.5 0 1 .4 1.1.9 0 .5-.3 1-.9 1.1H17c-.5 0-.9-.4-1-.9zm-.2-4.1c0-.5.4-1 1-1 .5 0 1 .4 1 1s-.4 1-1 1-1-.4-1-1zm1-3c-.5 0-1-.5-.9-1.1 0-.6.5-1 1.1-.9.6 0 1 .5.9 1.1 0 .5-.5.9-1.1.9.1 0 .1 0 0 0zm.4-4c-.5-.1-.9-.6-.9-1.1.1-.5.6-.9 1.1-.9.5.1.9.6.9 1.1-.1.5-.5.9-1 .9 0 .1-.1.1-.1 0zm.6-3.9c-.6-.1-.9-.6-.8-1.2.1-.5.6-.9 1.2-.8.5.1.9.6.8 1.2-.1.5-.5.8-1 .8h-.2zm.8-3.9c-.5-.1-.9-.7-.7-1.2.1-.5.7-.9 1.2-.7.5.1.9.7.7 1.2-.1.5-.5.8-1 .8-.1-.1-.1-.1-.2-.1zm1-3.9c-.5-.2-.8-.7-.7-1.2.2-.5.7-.8 1.2-.7.5.2.8.7.7 1.2-.1.4-.5.7-1 .7h-.2zm1.2-3.8c-.5-.2-.8-.8-.6-1.3.2-.5.8-.8 1.3-.6.5.2.8.8.6 1.3-.1.4-.5.7-1 .7-.1-.1-.2-.1-.3-.1zm1.3-3.8c-.5-.2-.8-.8-.6-1.3.2-.5.8-.8 1.3-.6.5.2.8.8.6 1.3-.1.4-.5.6-.9.6-.1.1-.3.1-.4 0zm1.5-3.7c-.5-.2-.8-.8-.5-1.3.2-.5.8-.7 1.3-.5.5.2.8.8.5 1.3-.2.4-.5.6-.9.6-.1 0-.3 0-.4-.1zm1.6-3.7c-.5-.2-.7-.8-.5-1.3.2-.5.8-.7 1.3-.5.5.2.7.8.5 1.3-.2.4-.5.6-.9.6-.1 0-.3 0-.4-.1z"/>
        <g fill="#D1D5D8">
            <path d="M39.5 144.7c0 .7 0 1.4-.2 2h3.2v18.1H10.4v-18.1h3.3c-.2-.6-.3-1.3-.2-2H8.4v22.1h36.1v-22.1h-5z"/>
            <path d="M26.4 165.2l-2.2-2.4H12.4v-22.1h12.5l1.6 1.6 1.6-1.6h12.4v22.1H28.9l-2.5 2.4zm-12-4.4H25l1.4 1.6 1.6-1.6h10.4v-18.1h-9.6l-2.5 2.4-2.4-2.4h-9.7v18.1h.2z"/>
            <path d="M16.3 144.8h6.1v2h-6.1zM16.3 148.8h6.1v2h-6.1zM16.3 152.8h6.1v2h-6.1zM30.3 144.8h6.1v2h-6.1zM30.3 148.8h6.1v2h-6.1zM30.3 152.8h6.1v2h-6.1zM25.5 147h2v9.8h-2zM16.3 156.8h6.1v2h-6.1zM30.3 156.8h6.1v2h-6.1z"/>
        </g>
        <g fill="#D1D5D8">
            <path d="M114.2 8.6c-.5.2-.8.8-.5 1.3.2.4.5.6.9.6.1 0 .3 0 .4-.1.5-.2.7-.8.5-1.3-.2-.5-.7-.7-1.3-.5zM133.4 2.4c-.5.1-.9.6-.8 1.2.1.5.5.8 1 .8h.2c.5-.1.9-.6.8-1.2-.1-.5-.6-.9-1.2-.8zM110.6 10.3c-.5.2-.7.8-.5 1.3.2.4.5.6.9.6.1 0 .3 0 .4-.1.5-.2.7-.8.5-1.3-.2-.5-.8-.7-1.3-.5zM129.5 3.3c-.5.1-.9.7-.7 1.2.1.5.5.8 1 .8h.2c.5-.1.9-.7.7-1.2-.1-.6-.7-.9-1.2-.8zM125.6 4.4c-.5.2-.8.7-.7 1.2.1.4.5.7 1 .7h.3c.5-.2.8-.7.7-1.2-.2-.5-.8-.8-1.3-.7zM99.9 15.9c-.5.3-.6.9-.4 1.4.2.3.5.5.9.5.2 0 .3 0 .5-.1.5-.3.6-.9.4-1.4-.3-.5-1-.7-1.4-.4zM107 12.1c-.5.2-.7.9-.4 1.4.2.3.5.5.9.5.1 0 .3 0 .4-.1.5-.2.7-.9.4-1.4-.3-.5-.9-.7-1.3-.4zM96.4 18c-.5.3-.6.9-.3 1.4.2.3.5.5.9.5.2 0 .4-.1.5-.2.5-.3.6-.9.3-1.4-.3-.5-.9-.6-1.4-.3zM103.4 13.9c-.5.3-.7.9-.4 1.4.2.3.5.5.9.5.2 0 .3 0 .5-.1.5-.3.7-.9.4-1.4-.3-.4-.9-.6-1.4-.4zM141.5 1.3c-.5 0-1 .5-.9 1.1 0 .5.5.9 1 .9h.1c.5 0 1-.5.9-1.1-.1-.5-.6-.9-1.1-.9zM163.7 6.9c-.3.4-.2 1.1.2 1.4.2.1.4.2.6.2.3 0 .6-.1.8-.4.3-.5.2-1.1-.2-1.4-.5-.4-1.1-.2-1.4.2zM149.6 1.3c-.5-.1-1 .3-1.1.9 0 .5.4 1 .9 1.1h.1c.5 0 1-.4 1-.9.1-.5-.3-1-.9-1.1zM157.7 3c-.5-.2-1.1.1-1.3.6-.2.5.1 1.1.6 1.3.1 0 .2.1.3.1.4 0 .8-.3.9-.7.3-.6 0-1.2-.5-1.3zM168.2 9.4c-.4-.4-1-.4-1.4 0-.4.4-.4 1 0 1.4.2.2.5.3.7.3.3 0 .5-.1.7-.3.4-.4.4-1.1 0-1.4zM161.5 4.5c-.5-.2-1.1 0-1.3.5-.2.5 0 1.1.5 1.3.1.1.3.1.4.1.4 0 .7-.2.9-.5.2-.5 0-1.1-.5-1.4zM145.5 1.1c-.5 0-1 .4-1 1 0 .5.5 1 1 1s1-.4 1-1c0-.5-.4-1-1-1zM153.7 1.9c-.5-.1-1.1.2-1.2.8-.1.5.2 1.1.8 1.2h.2c.5 0 .9-.3 1-.8.1-.6-.3-1.1-.8-1.2zM137.4 1.7c-.5.1-.9.6-.8 1.1.1.5.5.9 1 .9h.1c.5-.1.9-.6.8-1.1 0-.6-.5-.9-1.1-.9zM120.4 4.3c-2.2 0-3.9 1.8-3.9 3.9 0 2.2 1.8 3.9 3.9 3.9 2.2 0 3.9-1.8 3.9-3.9 0-2.2-1.7-3.9-3.9-3.9zM118.7 9c-.1-.2-.2-.5-.2-.8 0-.4.1-.7.3-1 .3-.5.9-.9 1.6-.9.3 0 .5.1.7.1.5.2.9.6 1.1 1.2.1.2.1.4.1.6 0 1.1-.9 1.9-1.9 1.9-.8 0-1.4-.5-1.7-1.1z"/>
        </g>
        <g fill="#D1D5D8">
            <path d="M81.1 150.7c-12.6 6-24.5 9.2-34.5 9.1v1.9h.1c10.4 0 22.7-3.3 35.6-9.4-.5-.4-.9-1-1.2-1.6zM124.7 113.4l4.3 2.8c-12.1 11.9-24.9 21.7-37.3 29 .3.6.6 1.2.7 1.9 12.9-7.5 26.2-17.6 38.6-29.9l4.7 2.8 3.5-14.3-14.5 7.7zm9.7 3.3l-5.6-3.3 7.4-4-1.8 7.3z"/>
            <path d="M86.5 155.1c-3.9 0-7-3.1-7-7s3.1-7 7-7 7 3.1 7 7-3.1 7-7 7zm0-12c-2.8 0-5 2.2-5 5s2.2 5 5 5 5-2.2 5-5-2.2-5-5-5z"/>
        </g>
    </g>
</svg>
