<svg xmlns="http://www.w3.org/2000/svg" xmlns:xlink="http://www.w3.org/1999/xlink" width="15" height="17" viewBox="0 0 15 17">
    <defs>
        <path id="a" d="M9.24 1.196L9.16.804A1 1 0 0 0 8.18 0H1a1 1 0 0 0-1 1v15a1 1 0 0 0 2 0v-5a1 1 0 0 1 1-1h3.78a1 1 0 0 1 .98.804l.08.392a1 1 0 0 0 .98.804H14a1 1 0 0 0 1-1V3a1 1 0 0 0-1-1h-3.78a1 1 0 0 1-.98-.804z"/>
    </defs>
    <g fill="none" fill-rule="evenodd">
        <mask id="b" fill="#fff">
            <use xlink:href="#a"/>
        </mask>
        <use fill="#D1D5D8" xlink:href="#a"/>
        <path fill="#000" d="M8-1h2v14H8z" mask="url(#b)" opacity=".1"/>
    </g>
</svg>
