<?xml version="1.0" encoding="UTF-8"?>
<svg width="20px" height="20px" viewBox="0 0 20 20" version="1.1" xmlns="http://www.w3.org/2000/svg" xmlns:xlink="http://www.w3.org/1999/xlink">
    <!-- Generator: Sketch 48.2 (47327) - http://www.bohemiancoding.com/sketch -->
    <title>Shape</title>
    <desc>Created with Sketch.</desc>
    <defs></defs>
    <g id="Page-1" stroke="none" stroke-width="1" fill="none" fill-rule="evenodd">
        <g id="rotate-button" fill="#FFFFFF">
            <path d="M10,0.25 C4.6375,0.25 0.25,4.6375 0.25,10 C0.25,15.3625 4.6375,19.75 10,19.75 C14.5097,19.75 18.2875,16.5806 19.3847,12.4375 L16.825,12.4375 C15.85,15.2403 13.1681,17.3125 10,17.3125 C5.9778,17.3125 2.6875,14.0222 2.6875,10 C2.6875,5.9778 5.9778,2.6875 10,2.6875 C12.0722,2.6875 13.7778,3.5403 15.1194,4.8819 L12.327,7.6704 C12.1406101,7.85631845 12.0847708,8.13630628 12.1855804,8.37950227 C12.28639,8.62269826 12.5239385,8.78107102 12.7872,8.7806 L19.1,8.7806 C19.4589851,8.7806 19.75,8.48958509 19.75,8.1306 L19.75,1.8191 C19.7499441,1.55607513 19.5913784,1.31900875 19.3483009,1.21853291 C19.1052233,1.11805706 18.8255514,1.17397838 18.6398,1.3602 L16.825,3.175 C15.1181,1.3472 12.6806,0.25 10,0.25 Z" id="Shape"></path>
        </g>
    </g>
</svg>