<svg xmlns="http://www.w3.org/2000/svg" xmlns:xlink="http://www.w3.org/1999/xlink" width="44" height="472" viewBox="0 0 44 472"><svg width="17" height="14" viewBox="-2 -2 17 14" id="arrow-check" y="0"><title>Layer 1</title><path d="M12.571 1.973L4.677 9.866 2.672 7.917l.005.006L0 5.246l1.84-1.841 2.677 2.677L10.599 0l1.972 1.973z" fill="#fff"></path></svg><svg width="20" height="20" viewBox="-2 -2 20 20" id="breadcrumb-svg" y="14"><path fill="#959FA5" d="M6 13c-.3 0-.5-.1-.7-.3-.4-.4-.4-1 0-1.4L8.6 8 5.3 4.7c-.4-.4-.4-1 0-1.4s1-.4 1.4 0l4 4c.4.4.4 1 0 1.4l-4 4c-.2.2-.4.3-.7.3z"></path></svg><svg width="20" height="20" viewBox="-2 -2 20 20" id="icon-close" y="34"><path fill="#0F181E" fill-rule="evenodd" d="M9.414 8l5.657-5.657A1 1 0 0 0 13.657.93L8 6.586 2.343.929A1 1 0 0 0 .93 2.343L6.586 8 .929 13.657a1 1 0 0 0 1.414 1.414L8 9.414l5.657 5.657a1 1 0 0 0 1.414-1.414L9.414 8z"></path></svg><svg width="20" height="20" viewBox="-2 -2 20 20" id="icon-close-hover" y="54"><path fill="#e74800" fill-rule="evenodd" d="M9.414 8l5.657-5.657A1 1 0 0 0 13.657.93L8 6.586 2.343.929A1 1 0 0 0 .93 2.343L6.586 8 .929 13.657a1 1 0 0 0 1.414 1.414L8 9.414l5.657 5.657a1 1 0 0 0 1.414-1.414L9.414 8z"></path></svg><svg width="20" height="20" viewBox="-2 -2 20 20" id="icon-close-white" y="74"><path fill="#fff" fill-rule="evenodd" d="M9.414 8l5.657-5.657A1 1 0 0 0 13.657.93L8 6.586 2.343.929A1 1 0 0 0 .93 2.343L6.586 8 .929 13.657a1 1 0 0 0 1.414 1.414L8 9.414l5.657 5.657a1 1 0 0 0 1.414-1.414L9.414 8z"></path></svg><svg width="26" height="26" viewBox="-2 -2 26 26" id="icon-create" y="94"><g fill="#FFF"><path d="M11.345 21c-2.58 0-5.004-1.04-6.827-2.93C1.538 14.985.83 10.305 2.757 6.426a.679.679 0 0 1 .929-.309c.338.18.472.611.297.963-1.651 3.325-1.045 7.336 1.51 9.982 1.563 1.619 3.64 2.51 5.852 2.51 2.21 0 4.289-.891 5.852-2.51 1.562-1.62 2.424-3.772 2.424-6.061 0-2.29-.861-4.442-2.424-6.06-1.564-1.62-3.641-2.511-5.852-2.511-2.211 0-4.29.892-5.852 2.51a.672.672 0 0 1-.975 0 .732.732 0 0 1 0-1.01C6.34 2.041 8.766 1 11.345 1c2.58 0 5.004 1.04 6.827 2.93C19.996 5.817 21 8.328 21 11c0 2.67-1.004 5.182-2.828 7.07-1.823 1.89-4.248 2.93-6.827 2.93z"></path><path d="M11.345 15.286c-.38 0-.69-.32-.69-.715V7.43c0-.395.31-.715.69-.715.38 0 .69.32.69.715v7.142a.702.702 0 0 1-.69.715z"></path><path d="M14.793 11.714H7.897a.703.703 0 0 1-.69-.714c0-.394.309-.714.69-.714h6.896c.381 0 .69.32.69.714a.702.702 0 0 1-.69.714z"></path></g></svg><svg width="25" height="25" viewBox="-2 -2 25 25" id="icon-like-bg" y="120"><path fill="#e1e1e1" fill-rule="evenodd" d="M15.225 0c-1.785 0-3.57.889-4.725 2.333C9.345.89 7.56 0 5.775 0 2.52 0 0 2.667 0 6.111c0 4.222 3.57 7.667 9.03 12.778l1.47 1.444 1.47-1.444C17.325 13.667 21 10.222 21 6.11 21 2.667 18.48 0 15.225 0z"></path></svg><svg width="25" height="25" viewBox="-2 -2 25 25" id="icon-like-default" y="145"><path fill="#d1d5d8" fill-rule="evenodd" d="M15.225 0c-1.785 0-3.57.889-4.725 2.333C9.345.89 7.56 0 5.775 0 2.52 0 0 2.667 0 6.111c0 4.222 3.57 7.667 9.03 12.778l1.47 1.444 1.47-1.444C17.325 13.667 21 10.222 21 6.11 21 2.667 18.48 0 15.225 0zm-4.62 17.333H10.5l-.105-.11C5.355 12.443 2.1 9.332 2.1 6.11c0-2.222 1.575-3.889 3.675-3.889 1.575 0 3.15 1.111 3.78 2.667h1.995c.525-1.556 2.1-2.667 3.675-2.667 2.1 0 3.675 1.667 3.675 3.89 0 3.221-3.255 6.332-8.295 11.221z"></path></svg><svg width="25" height="25" viewBox="-2 -2 25 25" id="icon-like-empty" y="170"><path fill="#D0021B" fill-rule="evenodd" d="M15.225 0c-1.785 0-3.57.889-4.725 2.333C9.345.89 7.56 0 5.775 0 2.52 0 0 2.667 0 6.111c0 4.222 3.57 7.667 9.03 12.778l1.47 1.444 1.47-1.444C17.325 13.667 21 10.222 21 6.11 21 2.667 18.48 0 15.225 0zm-4.62 17.333H10.5l-.105-.11C5.355 12.443 2.1 9.332 2.1 6.11c0-2.222 1.575-3.889 3.675-3.889 1.575 0 3.15 1.111 3.78 2.667h1.995c.525-1.556 2.1-2.667 3.675-2.667 2.1 0 3.675 1.667 3.675 3.89 0 3.221-3.255 6.332-8.295 11.221z"></path></svg><svg width="25" height="25" viewBox="-2 -2 25 25" id="icon-like-liked" y="195"><path fill="#D0021B" fill-rule="evenodd" d="M15.225 0c-1.785 0-3.57.889-4.725 2.333C9.345.89 7.56 0 5.775 0 2.52 0 0 2.667 0 6.111c0 4.222 3.57 7.667 9.03 12.778l1.47 1.444 1.47-1.444C17.325 13.667 21 10.222 21 6.11 21 2.667 18.48 0 15.225 0z"></path></svg><svg width="20" height="20" viewBox="-2 -2 20 20" id="icon-logout" y="220"><g fill="#D1D5D8"><path d="M15.547 7.596a.572.572 0 0 1-.404.975H2.57a.572.572 0 0 1 0-1.142h11.192L9.596 3.26a.57.57 0 1 1 .808-.808l5.143 5.143zm-2.118 2.69a.57.57 0 0 1-.168.404l-2.857 2.857a.57.57 0 1 1-.807-.808l2.857-2.857a.57.57 0 0 1 .975.404z"></path><path d="M5.143 15.429a.57.57 0 0 0-.572-.572H1.143V1.143H4.57A.571.571 0 1 0 4.57 0h-4A.571.571 0 0 0 0 .571V15.43a.57.57 0 0 0 .571.57h4a.57.57 0 0 0 .572-.571z"></path></g></svg><svg width="20" height="20" viewBox="-2 -2 20 20" id="icon-logout-hover" y="240"><g fill="#e74800"><path d="M15.547 7.596a.572.572 0 0 1-.404.975H2.57a.572.572 0 0 1 0-1.142h11.192L9.596 3.26a.57.57 0 1 1 .808-.808l5.143 5.143zm-2.118 2.69a.57.57 0 0 1-.168.404l-2.857 2.857a.57.57 0 1 1-.807-.808l2.857-2.857a.57.57 0 0 1 .975.404z"></path><path d="M5.143 15.429a.57.57 0 0 0-.572-.572H1.143V1.143H4.57A.571.571 0 1 0 4.57 0h-4A.571.571 0 0 0 0 .571V15.43a.57.57 0 0 0 .571.57h4a.57.57 0 0 0 .572-.571z"></path></g></svg><svg width="44" height="44" viewBox="-2 -2 44 44" id="icon-photo" y="260"><defs><rect id="a" width="40" height="40" rx="20"></rect></defs><g fill="none" fill-rule="evenodd"><use fill="#FFF" xlink:href="#a"></use><rect width="39" height="39" x=".5" y=".5" stroke="#F4F4F6" rx="19.5"></rect><path fill="#D1D5D8" d="M20.005 12c4.968.001 3.025 2.001 5.042 2.001 2.724 0 4.043.97 3.958 2.91v8.016c0 2.021-.988 3-2.965 2.937H13.97c-1.977.063-2.965-.916-2.965-2.937V16.91C10.92 14.97 12.24 14 14.963 14c2.017 0 .074-2 5.043-2.001zm-.038 5.902a3 3 0 1 0 0 6 3 3 0 0 0 0-6zm5.5-2a1.5 1.5 0 1 0 1.5 1.5 1.5 1.5 0 0 0-1.5-1.5z"></path></g></svg><svg width="14" height="14" viewBox="-2 -2 14 14" id="icon-search" y="304"><path d="M3.929 0A3.933 3.933 0 0 0 0 3.929a3.933 3.933 0 0 0 3.929 3.928A3.933 3.933 0 0 0 7.857 3.93 3.933 3.933 0 0 0 3.93 0zm0 7.143A3.218 3.218 0 0 1 .714 3.929 3.218 3.218 0 0 1 3.93.714 3.218 3.218 0 0 1 7.143 3.93a3.218 3.218 0 0 1-3.214 3.214zM9.895 9.39L7.752 7.247a.357.357 0 1 0-.505.506L9.39 9.895a.356.356 0 0 0 .505 0 .357.357 0 0 0 0-.505z" fill="#979B9E"></path></svg><svg width="26" height="26" viewBox="-2 -2 26 26" id="icon-search-big" y="318"><path d="M8.857 1C4.525 1 1 4.525 1 8.857c0 4.332 3.525 7.857 7.857 7.857 4.332 0 7.857-3.525 7.857-7.857C16.714 4.525 13.19 1 8.857 1zm0 14.286A6.436 6.436 0 0 1 2.43 8.857 6.436 6.436 0 0 1 8.857 2.43a6.436 6.436 0 0 1 6.429 6.428 6.436 6.436 0 0 1-6.429 6.429zM20.79 19.78l-4.286-4.285a.713.713 0 1 0-1.01 1.01l4.287 4.286a.712.712 0 0 0 1.01 0 .714.714 0 0 0 0-1.01z" fill="#979B9E"></path></svg><svg width="26" height="26" viewBox="-2 -2 26 26" id="icon-search-big-hover" y="344"><path d="M8.857 1C4.525 1 1 4.525 1 8.857c0 4.332 3.525 7.857 7.857 7.857 4.332 0 7.857-3.525 7.857-7.857C16.714 4.525 13.19 1 8.857 1zm0 14.286A6.436 6.436 0 0 1 2.43 8.857 6.436 6.436 0 0 1 8.857 2.43a6.436 6.436 0 0 1 6.429 6.428 6.436 6.436 0 0 1-6.429 6.429zM20.79 19.78l-4.286-4.285a.713.713 0 1 0-1.01 1.01l4.287 4.286a.712.712 0 0 0 1.01 0 .714.714 0 0 0 0-1.01z" fill="#555"></path></svg><svg width="14" height="14" viewBox="-2 -2 14 14" id="icon-search-hover" y="370"><path d="M3.929 0A3.933 3.933 0 0 0 0 3.929a3.933 3.933 0 0 0 3.929 3.928A3.933 3.933 0 0 0 7.857 3.93 3.933 3.933 0 0 0 3.93 0zm0 7.143A3.218 3.218 0 0 1 .714 3.929 3.218 3.218 0 0 1 3.93.714 3.218 3.218 0 0 1 7.143 3.93a3.218 3.218 0 0 1-3.214 3.214zM9.895 9.39L7.752 7.247a.357.357 0 1 0-.505.506L9.39 9.895a.356.356 0 0 0 .505 0 .357.357 0 0 0 0-.505z" fill="#555"></path></svg><svg width="20" height="20" viewBox="-2 -2 20 20" id="icon-settings" y="384"><g fill="#D1D5D8"><path d="M16 8a2.29 2.29 0 0 0-1.89-2.251l-.198-.478a2.289 2.289 0 0 0-.255-2.928c-.77-.769-2.057-.869-2.929-.256l-.477-.197A2.29 2.29 0 0 0 8 0a2.29 2.29 0 0 0-2.251 1.89l-.478.197a2.29 2.29 0 0 0-2.928.256 2.27 2.27 0 0 0-.67 1.617c0 .476.145.93.414 1.312l-.197.477A2.29 2.29 0 0 0 0 8a2.29 2.29 0 0 0 1.89 2.251l.197.477a2.29 2.29 0 0 0 .256 2.929c.768.768 2.058.869 2.929.256l.477.197A2.29 2.29 0 0 0 8.001 16a2.288 2.288 0 0 0 2.25-1.89l.478-.198a2.289 2.289 0 0 0 3.598-1.872c0-.476-.145-.93-.414-1.312l.198-.477A2.289 2.289 0 0 0 16 8zm-2.286 1.144c-.23 0-.44.139-.528.353l-.461 1.113a.571.571 0 0 0 .124.623c.216.216.334.502.334.808 0 .305-.118.592-.334.808a1.145 1.145 0 0 1-1.617 0 .571.571 0 0 0-.623-.124l-1.114.462a.571.571 0 0 0-.352.528 1.144 1.144 0 0 1-2.286 0c0-.231-.14-.44-.352-.528l-1.115-.462a.571.571 0 0 0-.623.124 1.17 1.17 0 0 1-1.616 0 1.144 1.144 0 0 1 0-1.616.571.571 0 0 0 .124-.623l-.461-1.113a.571.571 0 0 0-.528-.353 1.144 1.144 0 0 1 0-2.286c.23 0 .44-.14.528-.353l.461-1.114a.571.571 0 0 0-.124-.623 1.135 1.135 0 0 1-.334-.808 1.144 1.144 0 0 1 1.951-.809c.163.164.41.212.623.124l1.114-.461a.572.572 0 0 0 .352-.528 1.144 1.144 0 0 1 2.286 0c0 .23.14.44.352.528l1.115.461c.213.088.46.04.623-.124a1.17 1.17 0 0 1 1.616 0 1.146 1.146 0 0 1 0 1.617.571.571 0 0 0-.124.623l.461 1.114a.572.572 0 0 0 .528.352 1.145 1.145 0 0 1 0 2.287z"></path><path d="M8 5.143A2.86 2.86 0 0 0 5.143 8 2.86 2.86 0 0 0 8 10.857a.571.571 0 1 0 0-1.143c-.945 0-1.714-.769-1.714-1.714S7.055 6.286 8 6.286a1.716 1.716 0 0 1 1.44 2.647.57.57 0 1 0 .958.621c.3-.463.46-1 .46-1.554A2.86 2.86 0 0 0 8 5.143z"></path></g></svg><svg width="20" height="20" viewBox="-2 -2 20 20" id="icon-settings-hover" y="404"><g fill="#e74800"><path d="M16 8a2.29 2.29 0 0 0-1.89-2.251l-.198-.478a2.289 2.289 0 0 0-.255-2.928c-.77-.769-2.057-.869-2.929-.256l-.477-.197A2.29 2.29 0 0 0 8 0a2.29 2.29 0 0 0-2.251 1.89l-.478.197a2.29 2.29 0 0 0-2.928.256 2.27 2.27 0 0 0-.67 1.617c0 .476.145.93.414 1.312l-.197.477A2.29 2.29 0 0 0 0 8a2.29 2.29 0 0 0 1.89 2.251l.197.477a2.29 2.29 0 0 0 .256 2.929c.768.768 2.058.869 2.929.256l.477.197A2.29 2.29 0 0 0 8.001 16a2.288 2.288 0 0 0 2.25-1.89l.478-.198a2.289 2.289 0 0 0 3.598-1.872c0-.476-.145-.93-.414-1.312l.198-.477A2.289 2.289 0 0 0 16 8zm-2.286 1.144c-.23 0-.44.139-.528.353l-.461 1.113a.571.571 0 0 0 .124.623c.216.216.334.502.334.808 0 .305-.118.592-.334.808a1.145 1.145 0 0 1-1.617 0 .571.571 0 0 0-.623-.124l-1.114.462a.571.571 0 0 0-.352.528 1.144 1.144 0 0 1-2.286 0c0-.231-.14-.44-.352-.528l-1.115-.462a.571.571 0 0 0-.623.124 1.17 1.17 0 0 1-1.616 0 1.144 1.144 0 0 1 0-1.616.571.571 0 0 0 .124-.623l-.461-1.113a.571.571 0 0 0-.528-.353 1.144 1.144 0 0 1 0-2.286c.23 0 .44-.14.528-.353l.461-1.114a.571.571 0 0 0-.124-.623 1.135 1.135 0 0 1-.334-.808 1.144 1.144 0 0 1 1.951-.809c.163.164.41.212.623.124l1.114-.461a.572.572 0 0 0 .352-.528 1.144 1.144 0 0 1 2.286 0c0 .23.14.44.352.528l1.115.461c.213.088.46.04.623-.124a1.17 1.17 0 0 1 1.616 0 1.146 1.146 0 0 1 0 1.617.571.571 0 0 0-.124.623l.461 1.114a.572.572 0 0 0 .528.352 1.145 1.145 0 0 1 0 2.287z"></path><path d="M8 5.143A2.86 2.86 0 0 0 5.143 8 2.86 2.86 0 0 0 8 10.857a.571.571 0 1 0 0-1.143c-.945 0-1.714-.769-1.714-1.714S7.055 6.286 8 6.286a1.716 1.716 0 0 1 1.44 2.647.57.57 0 1 0 .958.621c.3-.463.46-1 .46-1.554A2.86 2.86 0 0 0 8 5.143z"></path></g></svg><svg width="12" height="12" viewBox="-2 -2 12 12" id="icon-tag-close" y="424"><path fill="#979B9E" fill-rule="evenodd" d="M4.85 4.142l2.828-2.828A.5.5 0 1 0 6.97.607L4.142 3.435 1.314.607a.5.5 0 1 0-.707.707l2.828 2.828L.607 6.971a.5.5 0 1 0 .707.707l2.828-2.829 2.829 2.829a.5.5 0 0 0 .707-.707L4.849 4.142z"></path></svg><svg width="12" height="12" viewBox="-2 -2 12 12" id="icon-tag-close-hover" y="436"><path fill="#e74800" fill-rule="evenodd" d="M4.85 4.142l2.828-2.828A.5.5 0 1 0 6.97.607L4.142 3.435 1.314.607a.5.5 0 1 0-.707.707l2.828 2.828L.607 6.971a.5.5 0 1 0 .707.707l2.828-2.829 2.829 2.829a.5.5 0 0 0 .707-.707L4.849 4.142z"></path></svg><svg width="13" height="10" viewBox="-2 -2 13 10" id="icon_arrow" y="448"><defs><style>.cls-icon-arrow{fill:#000;fill-rule:evenodd}</style></defs><path id="icon_arrow" class="cls-icon-arrow" d="M4337.5 2240a.661.661 0 0 1-.45-.18l-3.87-3.77a.616.616 0 0 1 0-.87.64.64 0 0 1 .89 0l3.43 3.34 3.42-3.34a.64.64 0 0 1 .89 0 .6.6 0 0 1 0 .87l-3.87 3.77a.62.62 0 0 1-.44.18z" transform="translate(-4333 -2235)"></path></svg><svg width="14.03" height="14" viewBox="-2 -2 14.03 14" id="icon_modal-close" y="458"><defs><style>.cls-icon-modal-close{fill:#333;fill-rule:evenodd}</style></defs><path id="icon_cross" class="cls-icon-modal-close" d="M4407.86 2238l3.94-3.94a.622.622 0 1 0-.88-.88l-3.94 3.93-3.94-3.93a.622.622 0 0 0-.88.88l3.93 3.94-3.93 3.93a.626.626 0 0 0 .88.89l3.94-3.94 3.94 3.94a.626.626 0 1 0 .88-.89z" transform="translate(-4401.97 -2233)"></path></svg></svg>
