<svg xmlns="http://www.w3.org/2000/svg" width="28" height="34" viewBox="0 0 28 34">
    <g fill="#9B9B9B" fill-rule="nonzero">
        <path d="M23.66 11.333H4.34c-.84 0-1.54.709-1.4 1.559L5.18 31.45c.14 1.417 1.4 2.408 2.8 2.408h11.9c1.4 0 2.66-.991 2.8-2.408l2.24-18.558c.14-.85-.42-1.559-1.26-1.559zM25.2 2.833h-7C18.2 1.275 16.94 0 15.4 0h-2.8c-1.54 0-2.8 1.275-2.8 2.833h-7C1.26 2.833 0 4.108 0 5.667v1.416C0 7.933.56 8.5 1.4 8.5h25.2c.84 0 1.4-.567 1.4-1.417V5.667c0-1.559-1.26-2.834-2.8-2.834z"/>
    </g>
</svg>
