<?xml version="1.0" encoding="UTF-8" standalone="no"?>
<svg
   xmlns:dc="http://purl.org/dc/elements/1.1/"
   xmlns:cc="http://creativecommons.org/ns#"
   xmlns:rdf="http://www.w3.org/1999/02/22-rdf-syntax-ns#"
   xmlns:svg="http://www.w3.org/2000/svg"
   xmlns="http://www.w3.org/2000/svg"
   xmlns:sodipodi="http://sodipodi.sourceforge.net/DTD/sodipodi-0.dtd"
   xmlns:inkscape="http://www.inkscape.org/namespaces/inkscape"
   width="28"
   height="34"
   viewBox="0 0 28 34"
   version="1.1"
   id="svg3715"
   sodipodi:docname="deleteTrue.svg"
   inkscape:version="0.92.2 (5c3e80d, 2017-08-06)">
  <metadata
     id="metadata3721">
    <rdf:RDF>
      <cc:Work
         rdf:about="">
        <dc:format>image/svg+xml</dc:format>
        <dc:type
           rdf:resource="http://purl.org/dc/dcmitype/StillImage" />
        <dc:title></dc:title>
      </cc:Work>
    </rdf:RDF>
  </metadata>
  <defs
     id="defs3719" />
  <sodipodi:namedview
     pagecolor="#ffffff"
     bordercolor="#666666"
     borderopacity="1"
     objecttolerance="10"
     gridtolerance="10"
     guidetolerance="10"
     inkscape:pageopacity="0"
     inkscape:pageshadow="2"
     inkscape:window-width="1920"
     inkscape:window-height="1001"
     id="namedview3717"
     showgrid="false"
     inkscape:zoom="23.764706"
     inkscape:cx="6.4467822"
     inkscape:cy="17"
     inkscape:window-x="-9"
     inkscape:window-y="-9"
     inkscape:window-maximized="1"
     inkscape:current-layer="g3713" />
  <g
     fill="#9B9B9B"
     fill-rule="nonzero"
     id="g3713">
    <path
       d="M23.66 11.333H4.34c-.84 0-1.54.709-1.4 1.559L5.18 31.45c.14 1.417 1.4 2.408 2.8 2.408h11.9c1.4 0 2.66-.991 2.8-2.408l2.24-18.558c.14-.85-.42-1.559-1.26-1.559zM25.2 2.833h-7C18.2 1.275 16.94 0 15.4 0h-2.8c-1.54 0-2.8 1.275-2.8 2.833h-7C1.26 2.833 0 4.108 0 5.667v1.416C0 7.933.56 8.5 1.4 8.5h25.2c.84 0 1.4-.567 1.4-1.417V5.667c0-1.559-1.26-2.834-2.8-2.834z"
       id="path3711" />
    <path
       style="stroke-width:0.04207921"
       d="M 0.92689198,8.4052608 C 0.50403142,8.2588634 0.23575705,7.9942176 0.09793478,7.5875145 -0.01013068,7.2686218 -8.6004629e-4,5.4181108 0.11099399,4.980766 0.35928465,4.0099587 1.0563608,3.2778066 2.049505,2.9447114 2.2663815,2.8719722 2.5181434,2.866287 6.0515881,2.8543376 L 9.8222357,2.841586 9.8454941,2.534055 C 9.8921335,1.9173769 10.171904,1.3343285 10.654703,0.84764504 10.98129,0.51843019 11.355791,0.28101976 11.769802,0.14074051 c 0.262481,-0.08893632 0.347317,-0.09322013 2.102961,-0.10618979 1.575599,-0.0116396 1.872486,-0.0039395 2.139628,0.0554939 1.134689,0.25244436 2.050675,1.30014868 2.141491,2.44943558 l 0.02411,0.3050743 h 3.609036 c 4.053096,0 4.01202,-0.0026 4.605302,0.2916941 0.584657,0.2900178 0.988101,0.6910639 1.281823,1.2742045 0.268924,0.533909 0.30344,0.7776048 0.288266,2.0352698 C 27.949831,7.4888173 27.944993,7.5449615 27.851479,7.733 27.71648,8.0044546 27.492835,8.2222844 27.215673,8.3522725 L 26.981436,8.4621287 14.063119,8.471416 C 1.7377767,8.4802766 1.1347995,8.4772402 0.92689198,8.4052608 Z"
       id="path3759"
       inkscape:connector-curvature="0" />
    <path
       style="stroke-width:0.04207921"
       d="M 0.96748184,8.4222953 C 0.51842995,8.2815163 0.23540509,8.0055441 0.09273007,7.5693405 0.03239281,7.3848699 0.02485247,7.1942119 0.03874472,6.2043171 0.05469039,5.0681052 0.05634899,5.0498673 0.17134176,4.7462872 0.5104915,3.8509342 1.135738,3.2511839 2.049505,2.9447114 2.2663815,2.8719722 2.5181434,2.866287 6.0515881,2.8543376 L 9.8222357,2.841586 9.8462301,2.537996 C 9.8973866,1.8907386 10.165954,1.3358714 10.675743,0.82420027 11.041963,0.45662736 11.428949,0.23424856 11.921686,0.1082277 12.21912,0.03215705 12.392175,0.02524752 14,0.02524752 c 1.607825,0 1.78088,0.0069095 2.078314,0.08298018 0.490035,0.12532992 0.879298,0.34897543 1.246355,0.716076 0.508165,0.5082267 0.777888,1.0657242 0.829101,1.7136923 l 0.02399,0.30359 3.770648,0.012752 c 3.533444,0.011949 3.785206,0.017635 4.002083,0.090374 0.763577,0.2560994 1.375191,0.7635411 1.703977,1.4137486 0.28133,0.5563603 0.287645,0.5943373 0.305975,1.8401524 0.01409,0.9576028 0.0059,1.181327 -0.04977,1.3675742 -0.09928,0.3318872 -0.303187,0.5793811 -0.6179,0.7499794 L 27.023507,8.4621293 14.08415,8.4700093 C 3.4620231,8.4764748 1.1130469,8.4679285 0.96748184,8.4222953 Z"
       id="path3761"
       inkscape:connector-curvature="0" />
    <path
       style="stroke-width:0.04207921"
       d="M 7.6039604,33.813319 C 6.6871964,33.700221 5.8497559,33.122554 5.4711115,32.342079 5.3756734,32.145359 5.2770972,31.889728 5.2520534,31.77401 5.1527679,31.31525 2.9282249,12.666446 2.953352,12.50352 3.0200826,12.070834 3.32289,11.681179 3.7432993,11.487011 L 4.0061881,11.365594 H 14 23.993812 l 0.240024,0.117868 c 0.255796,0.125612 0.406905,0.276526 0.541964,0.541264 0.1943,0.38086 0.24404,-0.126329 -0.99386,10.134185 -0.635226,5.265161 -1.17622,9.648762 -1.202209,9.741337 -0.186722,0.665115 -0.727556,1.289467 -1.405226,1.62223 -0.688553,0.338105 -0.09204,0.311248 -7.069307,0.318294 -3.425248,0.0035 -6.3508044,-0.0089 -6.5012376,-0.02745 z"
       id="path3763"
       inkscape:connector-curvature="0" />
    <path
       style="stroke-width:0.04207921"
       d="M 0.93661451,8.4135609 C 0.51738054,8.2846344 0.21244368,7.9829349 0.08993536,7.5758707 0.00560162,7.295651 0.00612887,5.4243108 0.09065394,5.0255025 0.25343774,4.2574526 0.81623246,3.5364108 1.5446244,3.1627031 2.156671,2.8486875 1.8573432,2.8697813 6.0470297,2.8454164 l 3.7660891,-0.021901 0.027831,-0.2945545 c 0.101259,-1.0716915 0.8304612,-1.98009019 1.9172682,-2.38842445 0.233393,-0.08769041 0.316259,-0.09187943 2.091941,-0.10575164 1.593566,-0.01244945 1.891625,-0.004944 2.158112,0.05434371 1.139566,0.2535294 2.040804,1.27588908 2.150779,2.43983238 l 0.02783,0.2945545 3.766089,0.021901 c 4.189023,0.024361 3.889191,0.00326 4.502406,0.3168103 0.559557,0.2861112 0.944427,0.680992 1.240437,1.2727022 0.247578,0.4948965 0.281362,0.7492623 0.266445,2.0060854 -0.01206,1.0165444 -0.01951,1.1094503 -0.103436,1.2910052 -0.11534,0.2495091 -0.360613,0.4947821 -0.626686,0.6266865 l -0.208621,0.1034227 -12.939357,0.00773 C 2.605902,8.4767121 1.1212936,8.4703552 0.93661451,8.4135609 Z"
       id="path3765"
       inkscape:connector-curvature="0" />
    <path
       style="stroke-width:0.04207921"
       d="M 1.0185644,8.4440182 C 0.64560211,8.3538025 0.29834018,8.0719998 0.14117777,7.7320195 0.05511514,7.5458451 0.05074257,7.4763673 0.05074257,6.2950495 c 0,-1.191315 0.0039299,-1.2523584 0.09752394,-1.5148515 C 0.5028468,3.7857451 1.3805517,3.0250916 2.3322416,2.8874798 c 0.1683658,-0.024345 1.7540146,-0.0416 3.8680831,-0.042092 3.9840373,-9.269e-4 3.6338337,0.02702 3.6338337,-0.2899888 0,-0.2487897 0.1132659,-0.6294284 0.3019646,-1.0147786 0.255258,-0.5212706 0.714795,-0.97250606 1.257806,-1.23508362 0.231291,-0.11184248 0.511045,-0.21140383 0.670432,-0.23859835 0.181335,-0.03093946 0.890431,-0.04177877 2.10396,-0.03216131 1.756408,0.01391987 1.84027,0.01819845 2.073461,0.10578625 0.736552,0.27665274 1.317539,0.77811235 1.622095,1.40005703 0.188699,0.3853502 0.301965,0.7659889 0.301965,1.0147786 0,0.3170201 -0.352496,0.2889909 3.654873,0.2906233 4.110989,0.00167 4.012305,-0.00507 4.635023,0.3165559 0.649259,0.3353296 1.143028,0.9075432 1.39586,1.6176196 0.0934,0.2623193 0.09739,0.3243247 0.09752,1.5148515 1.26e-4,1.1814718 -0.0042,1.2507712 -0.0903,1.43697 C 27.738505,7.9922942 27.4875,8.2362736 27.200237,8.3721709 L 26.965608,8.4831683 14.055205,8.4788611 C 6.9544834,8.476492 1.087995,8.4608129 1.0185644,8.4440182 Z"
       id="path3767"
       inkscape:connector-curvature="0" />
    <path
       style="stroke-width:0.04207921"
       d="M 1.0185644,8.4440182 C 0.64458859,8.3535576 0.33130473,8.1077279 0.16913509,7.7774827 L 0.05074257,7.5363861 V 6.2950495 5.0537129 L 0.17079763,4.7274122 C 0.47419074,3.9028127 1.1255796,3.2624263 1.9653465,2.9631747 l 0.2735149,-0.097467 3.757125,-0.021096 c 4.1530066,-0.023319 3.836241,0.00114 3.8375278,-0.2962902 0.00105,-0.2434316 0.1163174,-0.6272668 0.3026088,-1.0077004 0.337958,-0.69015571 1.106865,-1.29972458 1.833772,-1.45376679 0.352548,-0.07470996 3.590297,-0.08840626 3.98958,-0.0168767 0.137326,0.02460127 0.428294,0.13085075 0.646596,0.23610994 0.849447,0.40957988 1.46186,1.27374075 1.552767,2.19106935 l 0.02804,0.2829806 0.168317,0.029784 c 0.09257,0.016381 1.72104,0.031536 3.618812,0.033677 3.852623,0.00435 3.859007,0.00475 4.41358,0.2789653 0.597616,0.2954979 1.008997,0.7062987 1.313632,1.3117791 0.24489,0.4867348 0.277057,0.7342624 0.261652,2.0134387 l -0.01362,1.1306847 -0.124822,0.2253573 C 27.683585,8.0581149 27.498585,8.2269665 27.19409,8.379146 L 26.985951,8.4831683 14.065377,8.4788611 C 6.9590608,8.476492 1.087995,8.4608129 1.0185644,8.4440182 Z"
       id="path3769"
       inkscape:connector-curvature="0" />
    <path
       style="stroke-width:0.04207921"
       d="M 7.6067633,33.812603 C 6.6782352,33.691518 5.8645113,33.132975 5.4674511,32.344171 5.2253732,31.863256 5.3405028,32.689323 4.2267943,23.442327 2.8560455,12.061155 2.9265027,12.675276 2.9667754,12.459708 3.0502704,12.01278 3.3145619,11.683971 3.7570787,11.47648 L 3.9935644,11.365594 H 14.008416 24.023267 l 0.214184,0.113015 c 0.373002,0.196817 0.628141,0.571918 0.674479,0.991606 0.01382,0.12517 -0.16042,1.709152 -0.466342,4.239438 -0.268623,2.221783 -0.780962,6.463367 -1.138532,9.425743 -0.357568,2.962376 -0.679196,5.518688 -0.714728,5.680693 -0.09065,0.413299 -0.353151,0.86795 -0.692423,1.199258 -0.475945,0.464772 -1.02484,0.723928 -1.696986,0.801217 -0.420236,0.04832 -12.223687,0.04461 -12.5961557,-0.004 z"
       id="path4576"
       inkscape:connector-curvature="0" />
    <path
       style="stroke-width:0.04207921"
       d="M 7.5913366,33.813576 C 6.5624274,33.692095 5.6402568,32.958905 5.3197556,32.007512 5.232471,31.748412 5.165714,31.249486 4.6691839,27.145297 3.566076,18.027293 2.9557376,12.892203 2.9512086,12.691089 2.9400115,12.193871 3.2024194,11.771728 3.6855054,11.509805 L 3.9514851,11.365594 H 13.987376 24.023267 l 0.210396,0.111961 c 0.378951,0.201655 0.620518,0.546707 0.677519,0.967766 0.01445,0.106754 -0.03898,0.715937 -0.128584,1.466065 -1.234862,10.337402 -2.132493,17.673803 -2.193215,17.925302 -0.249095,1.031704 -1.221888,1.846546 -2.360175,1.976958 -0.437733,0.05015 -12.2130746,0.05009 -12.6378714,-8.4e-5 z"
       id="path4578"
       inkscape:connector-curvature="0" />
    <path
       style="stroke-width:0.04207921;fill:#d0021b;fill-opacity:1"
       d="M 7.5690254,33.813078 C 6.4802003,33.6707 5.5257202,32.85507 5.2785088,31.855766 5.1947248,31.517085 5.1276357,30.98439 4.2268459,23.505446 3.0741031,13.934621 2.9246443,12.632698 2.9583213,12.455429 c 0.08346,-0.439313 0.3576427,-0.770341 0.818732,-0.988474 l 0.2585903,-0.122334 9.9666614,-3.3e-5 9.966661,-3.4e-5 0.216507,0.108037 c 0.419342,0.20925 0.676868,0.570634 0.726999,1.02019 0.02279,0.204422 -0.03843,0.737327 -0.995908,8.668994 -0.998776,8.273737 -1.262328,10.41977 -1.307255,10.644614 -0.07844,0.392567 -0.354818,0.8772 -0.688166,1.206705 -0.487194,0.481579 -1.007433,0.736943 -1.670784,0.82012 -0.413089,0.0518 -12.2851537,0.05167 -12.6813336,-1.26e-4 z"
       id="path4580"
       inkscape:connector-curvature="0" />
    <path
       style="stroke-width:0.04207921;fill:#d0021b;fill-opacity:1"
       d="M 1.0269802,8.4436362 C 0.66471689,8.3702025 0.34432115,8.1169942 0.1520473,7.7521767 0.03896597,7.5376182 0.03823758,7.5306015 0.02448638,6.5233502 0.01687978,5.9661807 0.02916077,5.3791758 0.05177745,5.2188948 0.19676176,4.1914148 1.0078603,3.2641767 2.0579208,2.9254961 2.187278,2.883774 3.0833495,2.8647853 5.9292079,2.8434595 c 2.0366337,-0.015262 3.7455755,-0.042403 3.7976485,-0.060314 0.074651,-0.025677 0.09481,-0.064905 0.0953,-0.1854544 0.00175,-0.4311019 0.2648326,-1.0914489 0.6097976,-1.5306386 0.366585,-0.46671462 1.061049,-0.90047744 1.595948,-0.99682933 0.151353,-0.0272636 0.9385,-0.0447309 1.998762,-0.04435387 1.411851,5.0205e-4 1.801097,0.01288362 2.018882,0.06421868 1.109375,0.2614963 1.985897,1.26215262 2.126528,2.42768912 0.01601,0.1327107 0.05146,0.2557924 0.07877,0.2735149 0.02731,0.017723 1.725459,0.04233 3.773664,0.054682 3.634292,0.021918 3.730269,0.024576 3.983816,0.1103128 0.909082,0.3074056 1.642884,1.0805112 1.896402,1.9979777 0.06216,0.22496 0.07399,0.4493861 0.07399,1.4039033 V 7.4943069 L 27.861742,7.732498 C 27.727376,8.00611 27.505043,8.2235186 27.203157,8.3764958 L 26.992649,8.4831683 14.083453,8.4783292 C 6.9833956,8.4756677 1.1079827,8.4600559 1.0269802,8.4436362 Z"
       id="path4582"
       inkscape:connector-curvature="0" />
  </g>
</svg>
