<svg xmlns="http://www.w3.org/2000/svg" width="35" height="30" viewBox="0 0 35 30">
    <path fill="#1294F6" fill-rule="evenodd" d="M17.58 6.316c4.475 0 7.99 3.473 7.99 7.895 0 .947-.159 2.052-.638 2.842l4.634 4.579c2.397-2.053 4.315-4.58 5.434-7.421-2.717-6.948-9.589-11.843-17.58-11.843-2.237 0-4.315.474-6.393 1.106l3.516 3.473c.96-.473 2.078-.631 3.037-.631zM1.598 2.053l3.676 3.631.64.632C3.195 8.368 1.118 11.053 0 14.21c2.717 6.947 9.589 11.842 17.58 11.842 2.397 0 4.794-.474 7.032-1.264l.64.632L29.885 30l2.077-2.053L3.676 0 1.598 2.053zm8.79 8.684l2.397 2.368v1.106c0 2.684 2.078 4.736 4.795 4.736.32 0 .64 0 1.119-.158l2.397 2.369c-1.119.631-2.238.947-3.516.947-4.475 0-7.991-3.473-7.991-7.894 0-1.264.32-2.369.8-3.474zm6.872-1.263l4.955 4.894v-.315c0-2.685-2.078-4.737-4.795-4.737 0 .158 0 .158-.16.158z"/>
</svg>
