<svg xmlns="http://www.w3.org/2000/svg" width="102" height="21" viewBox="0 0 102 21">
    <g fill="none" fill-rule="evenodd">
        <path fill="#000" d="M5.762 9.795c-.709-.23-1.353-.464-1.934-.702A5.998 5.998 0 0 1 2.33 8.23a3.609 3.609 0 0 1-.98-1.21C1.118 6.554 1 5.98 1 5.307 1 4 1.528 2.957 2.583 2.174 3.64 1.391 5.118 1 7.02 1c.693 0 1.338.046 1.934.138.597.092 1.108.234 1.535.426.428.192.762.438 1.004.737.241.3.362.648.362 1.047 0 .4-.096.741-.29 1.025a2.93 2.93 0 0 1-.7.725c-.355-.215-.83-.403-1.427-.564a7.49 7.49 0 0 0-1.958-.242c-.725 0-1.257.096-1.596.288-.338.192-.507.434-.507.726 0 .23.104.418.314.564.21.145.524.28.943.403l1.28.39c1.516.461 2.68 1.049 3.494 1.762.814.714 1.22 1.685 1.22 2.913 0 1.305-.539 2.36-1.619 3.166-1.08.805-2.667 1.208-4.762 1.208-.741 0-1.43-.057-2.067-.172a6.779 6.779 0 0 1-1.668-.507c-.476-.222-.846-.499-1.112-.829A1.765 1.765 0 0 1 1 13.064c0-.445.137-.824.411-1.14.274-.314.572-.555.894-.724.452.337 1.004.629 1.656.875a6.029 6.029 0 0 0 2.14.368c.79 0 1.346-.115 1.668-.345.322-.23.483-.5.483-.806a.779.779 0 0 0-.386-.702c-.258-.162-.62-.319-1.088-.472l-1.016-.323zm11.432 1.745c0 .398.128.68.384.848.255.168.616.253 1.08.253.233 0 .474-.02.722-.058.248-.038.465-.088.651-.149.14.168.26.356.36.562.101.206.152.455.152.745 0 .58-.221 1.054-.663 1.421-.442.367-1.221.55-2.337.55-1.365 0-2.415-.305-3.152-.917-.736-.61-.988-1.604-.988-2.98V1.23c.17-.046.299-.095.616-.149.318-.053.655-.08 1.012-.08.682 0 1.213.118 1.593.355.38.237.57.738.57 1.502v2.241h3.046c.093.168.182.379.268.63a2.6 2.6 0 0 1 .128.838c0 .534-.12.92-.36 1.157-.241.237-.563.356-.966.356h-2.116v3.461zm10.178 4.172a7.934 7.934 0 0 1-2.546-.395 5.727 5.727 0 0 1-2.047-1.186c-.581-.527-1.039-1.19-1.372-1.99-.333-.798-.5-1.733-.5-2.803 0-1.054.167-1.961.5-2.72.333-.759.771-1.382 1.314-1.87a5.213 5.213 0 0 1 1.86-1.078 6.747 6.747 0 0 1 2.14-.347c.822 0 1.57.128 2.244.383a5.365 5.365 0 0 1 1.744 1.055c.489.447.869.982 1.14 1.605.271.624.407 1.302.407 2.037 0 .544-.147.959-.442 1.247-.295.287-.705.47-1.233.55l-5.744.887c.17.528.52.923 1.047 1.187.527.263 1.132.395 1.814.395a6.31 6.31 0 0 0 1.802-.252c.566-.167 1.027-.363 1.384-.587.248.16.457.384.628.671.17.288.255.591.255.91 0 .72-.325 1.255-.976 1.606a5.07 5.07 0 0 1-1.675.552c-.62.095-1.201.143-1.744.143zm-.651-9.532c-.372 0-.694.062-.965.186a1.943 1.943 0 0 0-.663.476c-.17.194-.298.41-.384.65-.085.24-.135.485-.15.733l3.976-.65c-.047-.31-.217-.62-.512-.93-.294-.31-.728-.465-1.302-.465zm12.41 9.532a7.934 7.934 0 0 1-2.546-.395 5.727 5.727 0 0 1-2.046-1.186c-.582-.527-1.039-1.19-1.372-1.99-.334-.798-.5-1.733-.5-2.803 0-1.054.166-1.961.5-2.72.333-.759.771-1.382 1.314-1.87a5.213 5.213 0 0 1 1.86-1.078 6.747 6.747 0 0 1 2.14-.347c.821 0 1.57.128 2.244.383a5.365 5.365 0 0 1 1.744 1.055c.488.447.868.982 1.14 1.605.27.624.407 1.302.407 2.037 0 .544-.148.959-.442 1.247-.295.287-.706.47-1.233.55l-5.744.887c.17.528.52.923 1.046 1.187.528.263 1.132.395 1.814.395a6.31 6.31 0 0 0 1.803-.252c.566-.167 1.027-.363 1.383-.587.248.16.458.384.628.671.17.288.256.591.256.91 0 .72-.325 1.255-.977 1.606a5.07 5.07 0 0 1-1.674.552c-.62.095-1.202.143-1.744.143zm-.65-9.532c-.372 0-.694.062-.965.186a1.943 1.943 0 0 0-.663.476c-.17.194-.299.41-.384.65-.085.24-.136.485-.151.733l3.977-.65c-.047-.31-.217-.62-.512-.93-.295-.31-.729-.465-1.302-.465zM50.1 3.323c.93 0 1.794.124 2.593.371a5.494 5.494 0 0 1 2.058 1.138c.574.51 1.023 1.153 1.349 1.928.325.774.488 1.696.488 2.766 0 1.021-.14 1.916-.418 2.682-.28.766-.675 1.409-1.187 1.928a4.814 4.814 0 0 1-1.848 1.161c-.721.256-1.524.383-2.407.383a5.428 5.428 0 0 1-1.86-.31v3.975a6.16 6.16 0 0 1-.745.155c-.341.056-.69.084-1.046.084-.342 0-.648-.024-.92-.072a1.54 1.54 0 0 1-.685-.287 1.298 1.298 0 0 1-.419-.587c-.093-.247-.14-.57-.14-.97V6.173c0-.431.09-.782.268-1.054.178-.271.423-.519.733-.742.48-.32 1.077-.575 1.79-.767.714-.191 1.512-.287 2.396-.287zm.046 9.261c1.597 0 2.396-1.02 2.396-3.06 0-1.061-.198-1.85-.593-2.363-.396-.515-.966-.772-1.71-.772-.294 0-.558.038-.79.112a3.049 3.049 0 0 0-.605.262v5.473c.186.1.388.182.605.249.217.066.45.1.697.1zm16.9-.739c0 1.21-.442 2.157-1.326 2.84-.884.685-2.186 1.027-3.907 1.027-.651 0-1.256-.047-1.814-.143-.558-.095-1.035-.243-1.43-.441a2.572 2.572 0 0 1-.93-.752 1.75 1.75 0 0 1-.338-1.075c0-.382.078-.704.233-.966a2.4 2.4 0 0 1 .558-.657c.45.255.965.481 1.547.68.58.2 1.251.299 2.011.299.48 0 .849-.072 1.105-.215.256-.143.384-.334.384-.573a.603.603 0 0 0-.28-.525c-.186-.127-.496-.23-.93-.31l-.697-.144c-1.35-.27-2.353-.696-3.012-1.277-.659-.58-.988-1.412-.988-2.494 0-.59.124-1.122.372-1.6a3.323 3.323 0 0 1 1.046-1.193c.45-.319.989-.565 1.616-.74a7.738 7.738 0 0 1 2.082-.263c.573 0 1.112.044 1.616.131.504.088.942.22 1.314.394.372.175.667.402.884.68.217.279.325.61.325.991 0 .366-.066.68-.197.943a2.11 2.11 0 0 1-.5.657 2.815 2.815 0 0 0-.558-.251 8.451 8.451 0 0 0-.814-.239 11.153 11.153 0 0 0-.896-.179 5.332 5.332 0 0 0-.825-.071c-.512 0-.907.06-1.186.179-.28.119-.419.306-.419.56 0 .176.078.319.233.43.155.112.45.215.883.31l.721.168c1.489.35 2.547.831 3.175 1.444.628.613.942 1.404.942 2.375zm12.062 3.713c-.156.046-.4.092-.733.139-.333.046-.678.07-1.035.07-.341 0-.647-.024-.919-.07-.27-.047-.5-.14-.686-.279-.186-.14-.329-.329-.43-.569-.1-.24-.151-.554-.151-.94V8.75c0-.635-.159-1.08-.477-1.336-.318-.255-.709-.383-1.174-.383-.31 0-.605.039-.884.116-.279.078-.504.17-.674.279v8.13a7.491 7.491 0 0 1-1.767.21c-.342 0-.648-.024-.92-.07-.27-.047-.5-.14-.685-.279-.186-.14-.33-.329-.43-.569-.101-.24-.152-.554-.152-.94v-12.7c.17-.03.423-.073.756-.128a6.293 6.293 0 0 1 1.93-.011c.272.046.5.14.686.278.186.14.33.33.43.57.101.24.152.553.152.94v1.503c.201-.078.507-.167.918-.268.411-.1.865-.15 1.36-.15 1.536 0 2.733.383 3.594 1.15.86.766 1.29 1.908 1.29 3.426v7.039zm13.519-6.052c0 .99-.15 1.873-.45 2.648-.3.775-.722 1.426-1.266 1.953a5.374 5.374 0 0 1-1.953 1.198c-.757.272-1.602.407-2.533.407-.93 0-1.775-.143-2.532-.431a5.564 5.564 0 0 1-1.953-1.234 5.512 5.512 0 0 1-1.266-1.953c-.3-.767-.45-1.63-.45-2.588 0-.943.15-1.798.45-2.564.3-.767.721-1.418 1.266-1.953a5.564 5.564 0 0 1 1.953-1.235c.757-.287 1.601-.431 2.532-.431s1.776.148 2.533.443c.757.296 1.408.711 1.953 1.246a5.512 5.512 0 0 1 1.266 1.954c.3.766.45 1.613.45 2.54zm-8.682.002c0 .753.207 1.33.62 1.731.415.401.992.602 1.732.602s1.308-.204 1.704-.611c.397-.407.595-.981.595-1.722 0-.74-.203-1.31-.608-1.712-.405-.4-.978-.601-1.718-.601s-1.312.2-1.717.601c-.406.401-.608.972-.608 1.712zm13.17 2.032c0 .398.128.68.384.848.256.168.616.253 1.081.253.233 0 .473-.02.721-.058.248-.038.465-.088.651-.149.14.168.26.356.361.562.1.206.151.455.151.745 0 .58-.22 1.054-.663 1.421-.442.367-1.22.55-2.337.55-1.364 0-2.415-.305-3.151-.917-.736-.61-1.066-1.604-1.066-2.98V1.23c.17-.046.376-.095.694-.149.318-.053.655-.08 1.011-.08.683 0 1.214.118 1.594.355.38.237.57.738.57 1.502v2.241h3.046c.093.168.182.379.267.63a2.6 2.6 0 0 1 .128.838c0 .534-.12.92-.36 1.157s-.562.356-.965.356h-2.117v3.461z"/>
        <path fill="#FFF" d="M85.069 4.889a.323.323 0 0 1 .427.305.323.323 0 0 1-.32.323v.012c-.36.026-.692.097-.997.213a2.9 2.9 0 0 0-1.018.644 2.873 2.873 0 0 0-.66 1.018c-.122.311-.196.65-.223 1.017h-.012a.323.323 0 0 1-.322.322h-.001a.322.322 0 0 1-.306-.425c.034-.426.123-.82.264-1.183.188-.48.452-.887.793-1.222a3.48 3.48 0 0 1 1.221-.772 4.2 4.2 0 0 1 1.154-.252zm-3.445 4.07a5.544 5.544 0 0 1 0-.436v.435z"/>
    </g>
</svg>
