<svg xmlns="http://www.w3.org/2000/svg" xmlns:xlink="http://www.w3.org/1999/xlink" width="26" height="375" viewBox="0 0 26 375"><svg width="20" height="20" viewBox="-2 -2 20 20" id="breadcrumb-svg" y="0"><path fill="#959FA5" d="M6 13c-.3 0-.5-.1-.7-.3-.4-.4-.4-1 0-1.4L8.6 8 5.3 4.7c-.4-.4-.4-1 0-1.4s1-.4 1.4 0l4 4c.4.4.4 1 0 1.4l-4 4c-.2.2-.4.3-.7.3z"></path></svg><svg width="26" height="26" viewBox="-2 -2 26 26" id="icon-create" y="20"><g fill="#FFF"><path d="M11.345 21c-2.58 0-5.004-1.04-6.827-2.93C1.538 14.985.83 10.305 2.757 6.426a.679.679 0 0 1 .929-.309c.338.18.472.611.297.963-1.651 3.325-1.045 7.336 1.51 9.982 1.563 1.619 3.64 2.51 5.852 2.51 2.21 0 4.289-.891 5.852-2.51 1.562-1.62 2.424-3.772 2.424-6.061 0-2.29-.861-4.442-2.424-6.06-1.564-1.62-3.641-2.511-5.852-2.511-2.211 0-4.29.892-5.852 2.51a.672.672 0 0 1-.975 0 .732.732 0 0 1 0-1.01C6.34 2.041 8.766 1 11.345 1c2.58 0 5.004 1.04 6.827 2.93C19.996 5.817 21 8.328 21 11c0 2.67-1.004 5.182-2.828 7.07-1.823 1.89-4.248 2.93-6.827 2.93z"></path><path d="M11.345 15.286c-.38 0-.69-.32-.69-.715V7.43c0-.395.31-.715.69-.715.38 0 .69.32.69.715v7.142a.702.702 0 0 1-.69.715z"></path><path d="M14.793 11.714H7.897a.703.703 0 0 1-.69-.714c0-.394.309-.714.69-.714h6.896c.381 0 .69.32.69.714a.702.702 0 0 1-.69.714z"></path></g></svg><svg width="25" height="25" viewBox="-2 -2 25 25" id="icon-like-bg" y="46"><path fill="#e1e1e1" fill-rule="evenodd" d="M15.225 0c-1.785 0-3.57.889-4.725 2.333C9.345.89 7.56 0 5.775 0 2.52 0 0 2.667 0 6.111c0 4.222 3.57 7.667 9.03 12.778l1.47 1.444 1.47-1.444C17.325 13.667 21 10.222 21 6.11 21 2.667 18.48 0 15.225 0z"></path></svg><svg width="25" height="25" viewBox="-2 -2 25 25" id="icon-like-empty" y="71"><path fill="#D0021B" fill-rule="evenodd" d="M15.225 0c-1.785 0-3.57.889-4.725 2.333C9.345.89 7.56 0 5.775 0 2.52 0 0 2.667 0 6.111c0 4.222 3.57 7.667 9.03 12.778l1.47 1.444 1.47-1.444C17.325 13.667 21 10.222 21 6.11 21 2.667 18.48 0 15.225 0zm-4.62 17.333H10.5l-.105-.11C5.355 12.443 2.1 9.332 2.1 6.11c0-2.222 1.575-3.889 3.675-3.889 1.575 0 3.15 1.111 3.78 2.667h1.995c.525-1.556 2.1-2.667 3.675-2.667 2.1 0 3.675 1.667 3.675 3.89 0 3.221-3.255 6.332-8.295 11.221z"></path></svg><svg width="25" height="25" viewBox="-2 -2 25 25" id="icon-like-liked" y="96"><path fill="#D0021B" fill-rule="evenodd" d="M15.225 0c-1.785 0-3.57.889-4.725 2.333C9.345.89 7.56 0 5.775 0 2.52 0 0 2.667 0 6.111c0 4.222 3.57 7.667 9.03 12.778l1.47 1.444 1.47-1.444C17.325 13.667 21 10.222 21 6.11 21 2.667 18.48 0 15.225 0z"></path></svg><svg width="20" height="20" viewBox="-2 -2 20 20" id="icon-logout" y="121"><g fill="#D1D5D8"><path d="M15.547 7.596a.572.572 0 0 1-.404.975H2.57a.572.572 0 0 1 0-1.142h11.192L9.596 3.26a.57.57 0 1 1 .808-.808l5.143 5.143zm-2.118 2.69a.57.57 0 0 1-.168.404l-2.857 2.857a.57.57 0 1 1-.807-.808l2.857-2.857a.57.57 0 0 1 .975.404z"></path><path d="M5.143 15.429a.57.57 0 0 0-.572-.572H1.143V1.143H4.57A.571.571 0 1 0 4.57 0h-4A.571.571 0 0 0 0 .571V15.43a.57.57 0 0 0 .571.57h4a.57.57 0 0 0 .572-.571z"></path></g></svg><svg width="20" height="20" viewBox="-2 -2 20 20" id="icon-logout-hover" y="141"><g fill="#e74800"><path d="M15.547 7.596a.572.572 0 0 1-.404.975H2.57a.572.572 0 0 1 0-1.142h11.192L9.596 3.26a.57.57 0 1 1 .808-.808l5.143 5.143zm-2.118 2.69a.57.57 0 0 1-.168.404l-2.857 2.857a.57.57 0 1 1-.807-.808l2.857-2.857a.57.57 0 0 1 .975.404z"></path><path d="M5.143 15.429a.57.57 0 0 0-.572-.572H1.143V1.143H4.57A.571.571 0 1 0 4.57 0h-4A.571.571 0 0 0 0 .571V15.43a.57.57 0 0 0 .571.57h4a.57.57 0 0 0 .572-.571z"></path></g></svg><svg width="14" height="14" viewBox="-2 -2 14 14" id="icon-search" y="161"><path d="M3.929 0A3.933 3.933 0 0 0 0 3.929a3.933 3.933 0 0 0 3.929 3.928A3.933 3.933 0 0 0 7.857 3.93 3.933 3.933 0 0 0 3.93 0zm0 7.143A3.218 3.218 0 0 1 .714 3.929 3.218 3.218 0 0 1 3.93.714 3.218 3.218 0 0 1 7.143 3.93a3.218 3.218 0 0 1-3.214 3.214zM9.895 9.39L7.752 7.247a.357.357 0 1 0-.505.506L9.39 9.895a.356.356 0 0 0 .505 0 .357.357 0 0 0 0-.505z" fill="#979B9E"></path></svg><svg width="26" height="26" viewBox="-2 -2 26 26" id="icon-search-big" y="175"><path d="M8.857 1C4.525 1 1 4.525 1 8.857c0 4.332 3.525 7.857 7.857 7.857 4.332 0 7.857-3.525 7.857-7.857C16.714 4.525 13.19 1 8.857 1zm0 14.286A6.436 6.436 0 0 1 2.43 8.857 6.436 6.436 0 0 1 8.857 2.43a6.436 6.436 0 0 1 6.429 6.428 6.436 6.436 0 0 1-6.429 6.429zM20.79 19.78l-4.286-4.285a.713.713 0 1 0-1.01 1.01l4.287 4.286a.712.712 0 0 0 1.01 0 .714.714 0 0 0 0-1.01z" fill="#979B9E"></path></svg><svg width="26" height="26" viewBox="-2 -2 26 26" id="icon-search-big-hover" y="201"><path d="M8.857 1C4.525 1 1 4.525 1 8.857c0 4.332 3.525 7.857 7.857 7.857 4.332 0 7.857-3.525 7.857-7.857C16.714 4.525 13.19 1 8.857 1zm0 14.286A6.436 6.436 0 0 1 2.43 8.857 6.436 6.436 0 0 1 8.857 2.43a6.436 6.436 0 0 1 6.429 6.428 6.436 6.436 0 0 1-6.429 6.429zM20.79 19.78l-4.286-4.285a.713.713 0 1 0-1.01 1.01l4.287 4.286a.712.712 0 0 0 1.01 0 .714.714 0 0 0 0-1.01z" fill="#555"></path></svg><svg width="14" height="14" viewBox="-2 -2 14 14" id="icon-search-hover" y="227"><path d="M3.929 0A3.933 3.933 0 0 0 0 3.929a3.933 3.933 0 0 0 3.929 3.928A3.933 3.933 0 0 0 7.857 3.93 3.933 3.933 0 0 0 3.93 0zm0 7.143A3.218 3.218 0 0 1 .714 3.929 3.218 3.218 0 0 1 3.93.714 3.218 3.218 0 0 1 7.143 3.93a3.218 3.218 0 0 1-3.214 3.214zM9.895 9.39L7.752 7.247a.357.357 0 1 0-.505.506L9.39 9.895a.356.356 0 0 0 .505 0 .357.357 0 0 0 0-.505z" fill="#555"></path></svg><svg width="20" height="20" viewBox="-2 -2 20 20" id="icon-settings" y="241"><g fill="#D1D5D8"><path d="M16 8a2.29 2.29 0 0 0-1.89-2.251l-.198-.478a2.289 2.289 0 0 0-.255-2.928c-.77-.769-2.057-.869-2.929-.256l-.477-.197A2.29 2.29 0 0 0 8 0a2.29 2.29 0 0 0-2.251 1.89l-.478.197a2.29 2.29 0 0 0-2.928.256 2.27 2.27 0 0 0-.67 1.617c0 .476.145.93.414 1.312l-.197.477A2.29 2.29 0 0 0 0 8a2.29 2.29 0 0 0 1.89 2.251l.197.477a2.29 2.29 0 0 0 .256 2.929c.768.768 2.058.869 2.929.256l.477.197A2.29 2.29 0 0 0 8.001 16a2.288 2.288 0 0 0 2.25-1.89l.478-.198a2.289 2.289 0 0 0 3.598-1.872c0-.476-.145-.93-.414-1.312l.198-.477A2.289 2.289 0 0 0 16 8zm-2.286 1.144c-.23 0-.44.139-.528.353l-.461 1.113a.571.571 0 0 0 .124.623c.216.216.334.502.334.808 0 .305-.118.592-.334.808a1.145 1.145 0 0 1-1.617 0 .571.571 0 0 0-.623-.124l-1.114.462a.571.571 0 0 0-.352.528 1.144 1.144 0 0 1-2.286 0c0-.231-.14-.44-.352-.528l-1.115-.462a.571.571 0 0 0-.623.124 1.17 1.17 0 0 1-1.616 0 1.144 1.144 0 0 1 0-1.616.571.571 0 0 0 .124-.623l-.461-1.113a.571.571 0 0 0-.528-.353 1.144 1.144 0 0 1 0-2.286c.23 0 .44-.14.528-.353l.461-1.114a.571.571 0 0 0-.124-.623 1.135 1.135 0 0 1-.334-.808 1.144 1.144 0 0 1 1.951-.809c.163.164.41.212.623.124l1.114-.461a.572.572 0 0 0 .352-.528 1.144 1.144 0 0 1 2.286 0c0 .23.14.44.352.528l1.115.461c.213.088.46.04.623-.124a1.17 1.17 0 0 1 1.616 0 1.146 1.146 0 0 1 0 1.617.571.571 0 0 0-.124.623l.461 1.114a.572.572 0 0 0 .528.352 1.145 1.145 0 0 1 0 2.287z"></path><path d="M8 5.143A2.86 2.86 0 0 0 5.143 8 2.86 2.86 0 0 0 8 10.857a.571.571 0 1 0 0-1.143c-.945 0-1.714-.769-1.714-1.714S7.055 6.286 8 6.286a1.716 1.716 0 0 1 1.44 2.647.57.57 0 1 0 .958.621c.3-.463.46-1 .46-1.554A2.86 2.86 0 0 0 8 5.143z"></path></g></svg><svg width="20" height="20" viewBox="-2 -2 20 20" id="icon-settings-hover" y="261"><g fill="#e74800"><path d="M16 8a2.29 2.29 0 0 0-1.89-2.251l-.198-.478a2.289 2.289 0 0 0-.255-2.928c-.77-.769-2.057-.869-2.929-.256l-.477-.197A2.29 2.29 0 0 0 8 0a2.29 2.29 0 0 0-2.251 1.89l-.478.197a2.29 2.29 0 0 0-2.928.256 2.27 2.27 0 0 0-.67 1.617c0 .476.145.93.414 1.312l-.197.477A2.29 2.29 0 0 0 0 8a2.29 2.29 0 0 0 1.89 2.251l.197.477a2.29 2.29 0 0 0 .256 2.929c.768.768 2.058.869 2.929.256l.477.197A2.29 2.29 0 0 0 8.001 16a2.288 2.288 0 0 0 2.25-1.89l.478-.198a2.289 2.289 0 0 0 3.598-1.872c0-.476-.145-.93-.414-1.312l.198-.477A2.289 2.289 0 0 0 16 8zm-2.286 1.144c-.23 0-.44.139-.528.353l-.461 1.113a.571.571 0 0 0 .124.623c.216.216.334.502.334.808 0 .305-.118.592-.334.808a1.145 1.145 0 0 1-1.617 0 .571.571 0 0 0-.623-.124l-1.114.462a.571.571 0 0 0-.352.528 1.144 1.144 0 0 1-2.286 0c0-.231-.14-.44-.352-.528l-1.115-.462a.571.571 0 0 0-.623.124 1.17 1.17 0 0 1-1.616 0 1.144 1.144 0 0 1 0-1.616.571.571 0 0 0 .124-.623l-.461-1.113a.571.571 0 0 0-.528-.353 1.144 1.144 0 0 1 0-2.286c.23 0 .44-.14.528-.353l.461-1.114a.571.571 0 0 0-.124-.623 1.135 1.135 0 0 1-.334-.808 1.144 1.144 0 0 1 1.951-.809c.163.164.41.212.623.124l1.114-.461a.572.572 0 0 0 .352-.528 1.144 1.144 0 0 1 2.286 0c0 .23.14.44.352.528l1.115.461c.213.088.46.04.623-.124a1.17 1.17 0 0 1 1.616 0 1.146 1.146 0 0 1 0 1.617.571.571 0 0 0-.124.623l.461 1.114a.572.572 0 0 0 .528.352 1.145 1.145 0 0 1 0 2.287z"></path><path d="M8 5.143A2.86 2.86 0 0 0 5.143 8 2.86 2.86 0 0 0 8 10.857a.571.571 0 1 0 0-1.143c-.945 0-1.714-.769-1.714-1.714S7.055 6.286 8 6.286a1.716 1.716 0 0 1 1.44 2.647.57.57 0 1 0 .958.621c.3-.463.46-1 .46-1.554A2.86 2.86 0 0 0 8 5.143z"></path></g></svg><svg width="14.03" height="14" viewBox="-2 -2 14.03 14" id="icon_modal-close" y="281"><defs><style>.cls-icon-modal-close{fill:#333;fill-rule:evenodd}</style></defs><path id="icon_cross" class="cls-icon-modal-close" d="M4407.86 2238l3.94-3.94a.622.622 0 1 0-.88-.88l-3.94 3.93-3.94-3.93a.622.622 0 0 0-.88.88l3.93 3.94-3.93 3.93a.626.626 0 0 0 .88.89l3.94-3.94 3.94 3.94a.626.626 0 1 0 .88-.89z" transform="translate(-4401.97 -2233)"></path></svg><svg width="20" height="20" viewBox="-2 -2 20 20" id="life" y="295"><g fill="#F1242C"><path d="M8.095-.002c.788-.031 1.391-.005 1.391-.005s.342.405.722 1.226c2.098 4.544 1.862 9.005-.411 13.442-.31.606-.698 1.339-.698 1.339s-1.046.048-1.678-.025c2.656-5.139 2.939-10.487.674-15.977zM4.35 10.504h2.754v2.241H4.35v-2.241zM4.677 3.977h2.722v2.239H4.677V3.977z"></path></g></svg><svg width="20" height="20" viewBox="-2 -2 20 20" id="mts" y="315"><path fill="#F00" d="M.521 0h14.958v16H.521z"></path><path fill="#FFF" d="M11.721 8.712c-.08.58-.11 1.17-.25 1.73-.42 1.65-1.51 2.55-3.09 2.63-1.75.08-3.17-.75-3.7-2.34-.84-2.53-.36-4.88 1.4-6.92.4-.47.85-.76 1.32-.89h1.1c.51.13 1.01.46 1.46.97 1.02 1.14 1.63 2.86 1.76 4.82z"></path></svg><svg width="20" height="20" viewBox="-2 -2 20 20" id="velcom" y="335"><path opacity=".55" fill="#CEC21C" d="M11.9 12.077l-3.89 3.889-7.99-7.99 3.89-3.89z"></path><path fill="#FE0" d="M12.004 3.944l4.03 4.03-4.1 4.102-4.031-4.03z"></path><path opacity=".58" fill="#F8DC00" d="M8.009 8.06l4.03 4.03-3.96 3.96-4.03-4.03z"></path></svg><svg width="20" height="20" viewBox="-2 -2 20 20" id="viber" y="355"><path fill="#8B51A2" d="M4 15.9v-.3-2.4c0-.1-.1-.3-.2-.3-1.7-.5-2.6-1.7-2.9-3.4C.6 7.9.7 6.2 1 4.6c.4-1.8 1.5-2.9 3.3-3.3C5.7.9 7.1.9 8.5 1c1 0 2.1.2 3.1.6 1.3.4 2 1.3 2.4 2.5.6 2.1.5 4.2 0 6.3-.4 1.3-1.3 2.1-2.6 2.5-1.5.4-3 .6-4.5.5-.2 0-.4.1-.5.2-.8.7-1.4 1.4-2.1 2.1-.1.1-.2.2-.2.3l-.1-.1zM3 4.6c0 .2 0 .4.1.5 1.2 3.1 3.3 5.2 6.3 6.5.5.2.9.1 1.3-.2.3-.3.5-.5.7-.9.2-.4.2-.7-.2-1-.4-.3-.8-.7-1.3-1-.5-.2-.8-.2-1.3.4-.3.4-.4.4-.8.3-.9-.4-1.6-1-2-1.8-.4-.7-.3-.9.2-1.4.4-.3.5-.6.2-1-.3-.6-.7-1.1-1.1-1.6-.2-.2-.5-.3-.8-.2-.5.2-.9.5-1.2 1-.1.1-.1.3-.1.4zm4.7-1.5h-.3c-.1 0-.2.1-.2.2s.1.2.2.3h.2c1.3.1 2.4.7 3 1.9.3.5.4 1.1.4 1.8 0 .1.2.2.3.3l.3-.3v-.6c-.3-2-1.9-3.5-3.9-3.6zm2.8 3.6c-.1-.4-.1-.8-.3-1.1-.5-1-1.3-1.4-2.3-1.5-.1 0-.2.1-.4.2l.3.3H8c1 .1 1.7.7 1.9 1.6.1.2 0 .5.1.7 0 .1.2.2.3.3.1-.1.2-.2.2-.3v-.2zm-1-.1c0-.8-.6-1.5-1.3-1.5-.2 0-.3.2-.4.3-.1.1.1.2.3.3.7.1.7.2.9.9 0 .1.2.3.3.3 0 0 .1-.2.2-.3z"></path><g fill="#FFF"><path d="M2.9 4.6c.1-.1.1-.2.1-.3.3-.5.7-.8 1.2-1 .3-.1.6 0 .8.2.4.5.8 1 1.1 1.5.3.4.2.7-.2 1-.5.5-.6.7-.2 1.3.4.8 1.1 1.4 2 1.8.4.2.6.1.8-.2.5-.6.7-.7 1.4-.2.4.3.9.6 1.3.9.3.3.4.6.2.9-.2.3-.4.6-.7.8-.4.3-.8.4-1.3.2-3-1.3-5.1-3.4-6.3-6.4-.1-.1-.1-.3-.2-.5zM7.6 3.1c1.9.1 3.5 1.6 3.7 3.5 0 .2.1.4 0 .6 0 .1-.2.2-.3.3-.1-.1-.3-.2-.3-.3 0-.6-.1-1.2-.4-1.8-.6-1.2-1.6-1.8-3-1.8h-.2c.1 0 0-.1 0-.2s.1-.2.2-.2c.1-.1.2-.1.3-.1z"></path><path d="M10.3 6.7v.2c-.1.1-.2.2-.2.3l-.3-.3c-.1-.2 0-.5-.1-.7-.2-.8-.9-1.4-1.8-1.5h-.2l-.3-.3c.1-.1.2-.2.4-.2 1 .1 1.8.5 2.3 1.5.1.2.2.6.2 1 .1 0 .1 0 0 0z"></path><path d="M9.4 6.6l-.2.2c-.2 0-.3-.1-.4-.2-.1-.7-.2-.8-.8-.9-.2 0-.3-.1-.3-.3 0-.1.2-.2.3-.2.8 0 1.4.6 1.4 1.4z"></path></g></svg></svg>