<svg xmlns="http://www.w3.org/2000/svg" width="21" height="21" viewBox="0 0 21 21">
    <path fill="#D0021B" fill-rule="evenodd" d="M15.225 0c-1.785 0-3.57.889-4.725 2.333C9.345.89 7.56 0 5.775 0 2.52 0 0 2.667 0 6.111c0 4.222 3.57 7.667 9.03 12.778l1.47 1.444 1.47-1.444C17.325 13.667 21 10.222 21 6.11 21 2.667 18.48 0 15.225 0zm-4.62 17.333H10.5l-.105-.11C5.355 12.443 2.1 9.332 2.1 6.11c0-2.222 1.575-3.889 3.675-3.889 1.575 0 3.15 1.111 3.78 2.667h1.995c.525-1.556 2.1-2.667 3.675-2.667 2.1 0 3.675 1.667 3.675 3.89 0 3.221-3.255 6.332-8.295 11.221z"/>
</svg>
