<svg xmlns="http://www.w3.org/2000/svg" width="30" height="16" viewBox="0 0 30 16">
    <path fill="#FFF" fill-rule="evenodd" d="M4 0h22a4 4 0 0 1 4 4v8a4 4 0 0 1-4 4H4a4 4 0 0 1-4-4V4a4 4 0 0 1 4-4zm5.666 7.337v1.624h1.493v1.219c-.282.06-.59.09-.926.09-.614 0-1.084-.19-1.41-.572-.326-.382-.49-.936-.49-1.663 0-.742.18-1.312.541-1.712.36-.399.87-.598 1.53-.598.72 0 1.382.138 1.985.415l.715-1.65a6.64 6.64 0 0 0-1.221-.352A7.682 7.682 0 0 0 10.393 4c-1.388 0-2.467.35-3.238 1.049C6.385 5.748 6 6.725 6 7.98c0 1.288.352 2.28 1.055 2.976.704.695 1.7 1.043 2.989 1.043 1.174 0 2.252-.156 3.232-.468V7.337h-3.61zm5.314 4.557h2.27V4.112h-2.27v7.782zm6.303 0V8.97h2.505V7.284h-2.505V5.8H24V4.112h-4.942v7.782h2.225z"/>
</svg>
