<svg xmlns="http://www.w3.org/2000/svg" width="16" height="16" viewBox="0 0 16 16">
    <path fill="#FFF" fill-rule="evenodd" d="M14 1.778h-2V.505A.507.507 0 0 0 11.5 0h-7c-.276 0-.5.218-.5.505v1.273H2V.505A.497.497 0 0 0 1.495 0h-.99A.503.503 0 0 0 0 .496v15.008c0 .274.214.496.505.496h.99A.5.5 0 0 0 2 15.495v-1.273h2v1.273c0 .279.23.505.5.505h7c.276 0 .5-.218.5-.505v-1.273h2v1.273c0 .279.214.505.505.505h.99a.503.503 0 0 0 .505-.496V.496A.493.493 0 0 0 15.495 0h-.99A.5.5 0 0 0 14 .505v1.273zM2 12.444v-1.777h2v1.777H2zM2 8.89V7.11h2V8.89H2zm0-3.556V3.556h2v1.777H2zm10 7.111v-1.777h2v1.777h-2zm0-3.555V7.11h2V8.89h-2zm0-3.556V3.556h2v1.777h-2z"/>
</svg>
