<svg xmlns="http://www.w3.org/2000/svg" width="30" height="30" viewBox="0 0 30 30">
    <g fill="none" fill-rule="evenodd">
        <rect width="30" height="30" fill="#FAFAFA" rx="15"/>
        <path fill="#979B9E" d="M17.974 10.522L14.19 14.18a.726.726 0 0 0 0 1.045.778.778 0 0 0 1.081 0l3.786-3.657a.726.726 0 0 0 0-1.045.778.778 0 0 0-1.082 0zm-3.942 6.714L12.026 15.3a.778.778 0 0 0-1.082 0 .726.726 0 0 0 0 1.044l3.09 2.986a1 1 0 0 0 1.39 0l8.015-7.742a.728.728 0 0 0-.018-1.065.832.832 0 0 0-1.138.023l-6.859 6.688a1 1 0 0 1-1.392.003zm-3.165 2.242a.726.726 0 0 0 0-1.045l-3.245-3.134a.778.778 0 0 0-1.081 0 .726.726 0 0 0 0 1.044l3.244 3.135a.778.778 0 0 0 1.082 0z"/>
    </g>
</svg>
