<svg xmlns="http://www.w3.org/2000/svg" width="28" height="28" viewBox="0 0 28 28">
    <g fill="none" fill-rule="evenodd">
        <rect width="28" height="28" fill="#4A90E2" rx="14"/>
        <path fill="#FFF" d="M6.354 16.23a.474.474 0 0 0 0 .683l2.482 2.393c.397.383.72.246.72-.308v-1.274c0-.163.13-.295.3-.295h5.413c.28 0 .509-.225.509-.505v-.705a.503.503 0 0 0-.51-.505H9.857a.302.302 0 0 1-.3-.295v-1.275c0-.553-.329-.685-.72-.307L6.354 16.23zm12.81-7.536c-.397-.383-.72-.246-.72.308v1.274c0 .163-.13.295-.3.295h-5.413a.506.506 0 0 0-.509.505v.705c0 .279.222.505.51.505h5.412c.166 0 .3.138.3.295v1.275c0 .553.329.685.72.307l2.482-2.393a.474.474 0 0 0 0-.683l-2.482-2.393z"/>
    </g>
</svg>
